<svg xmlns="http://www.w3.org/2000/svg" xmlns:xlink="http://www.w3.org/1999/xlink" xmlns:serif="http://www.serif.com/" width="100%" height="100%" viewBox="0 0 1565 400" xml:space="preserve" style="fill-rule:evenodd;clip-rule:evenodd;stroke-linejoin:round;stroke-miterlimit:2;"><rect id="Artboard2" x="-485.53" y="-1849.93" width="2550" height="3300" style="fill:none;"></rect><path id="path0" d="M1221.53,55.32c-0.106,0.131 -1.428,0.397 -2.939,0.592c-4.343,0.56 -7.292,1.062 -8.633,1.471c-4.003,1.217 -9.16,2.993 -9.341,3.218c-0.117,0.144 -0.51,0.262 -0.874,0.262c-0.363,-0 -0.793,0.142 -0.955,0.315c-0.161,0.173 -0.921,0.548 -1.688,0.832c-0.767,0.285 -1.534,0.623 -1.705,0.75c-0.17,0.129 -0.867,0.464 -1.548,0.745c-0.682,0.281 -2.565,1.279 -4.183,2.217c-1.62,0.938 -3.293,1.899 -3.719,2.135c-0.426,0.237 -1.509,0.993 -2.407,1.682c-0.898,0.689 -1.77,1.253 -1.937,1.253c-0.167,-0 -0.303,0.172 -0.303,0.382c-0,0.209 -0.136,0.381 -0.304,0.381c-0.309,0 -5.972,4.423 -7.018,5.48c-0.319,0.323 -1.765,1.671 -3.213,2.994c-1.449,1.325 -2.784,2.581 -2.968,2.792c-0.184,0.21 -1.429,1.587 -2.767,3.056c-3.054,3.358 -4.319,4.909 -7.486,9.186c-3.81,5.144 -3.61,4.842 -7.071,10.674c-1.123,1.89 -2.245,3.739 -2.494,4.11c-0.25,0.37 -0.453,0.755 -0.453,0.855c-0,0.1 -0.628,1.389 -1.394,2.864c-0.767,1.474 -1.395,2.782 -1.395,2.905c0,0.123 -0.269,0.69 -0.598,1.26c-0.844,1.46 -4.404,10.121 -5.195,12.639c-0.364,1.156 -1.033,3.39 -1.486,4.965c-0.455,1.576 -0.946,3.208 -1.091,3.628c-0.376,1.083 -0.919,3.487 -1.901,8.403c-0.169,0.839 -0.428,2.042 -0.577,2.672c-0.148,0.63 -0.493,3.122 -0.765,5.538c-0.273,2.416 -0.625,5.252 -0.785,6.302c-0.281,1.863 -0.69,10.505 -0.696,14.704c-0.004,3.122 0.627,13.956 0.979,16.803c0.482,3.894 1.21,8.813 1.583,10.694c0.612,3.081 0.964,5.129 1.135,6.59c0.091,0.789 0.292,1.529 0.445,1.645c0.152,0.116 0.276,0.622 0.276,1.122c0,0.5 0.14,1.015 0.31,1.145c0.171,0.131 0.311,0.572 0.311,0.983c-0,0.411 0.131,1.045 0.292,1.409c0.162,0.365 0.591,1.78 0.953,3.147c0.643,2.416 5.044,13.736 6.684,17.186c0.448,0.945 1.301,2.749 1.895,4.01c0.593,1.26 1.601,3.15 2.239,4.2c6.923,11.39 6.489,10.717 9.524,14.813c9.691,13.077 24.65,25.526 36.199,30.121c2.045,0.814 3.997,1.636 4.337,1.828c0.643,0.359 1.753,0.692 3.49,1.047c0.555,0.113 1.086,0.358 1.18,0.545c0.093,0.187 0.582,0.34 1.085,0.34c0.504,-0 1.158,0.157 1.454,0.351c0.296,0.192 1.514,0.528 2.707,0.746c1.192,0.218 3.145,0.577 4.338,0.799c7.246,1.346 19.272,1.624 24.943,0.574c3.78,-0.699 7.103,-1.301 8.755,-1.586c0.64,-0.111 1.241,-0.354 1.335,-0.543c0.094,-0.188 0.537,-0.341 0.983,-0.341c0.446,-0 1.275,-0.172 1.841,-0.383c0.566,-0.209 1.482,-0.538 2.035,-0.73c1.813,-0.626 8.12,-3.111 8.754,-3.449c0.341,-0.18 1.526,-0.842 2.633,-1.469c4.953,-2.804 7.027,-4.052 7.747,-4.657c0.426,-0.358 1.751,-1.304 2.943,-2.101c2.052,-1.371 4.775,-3.502 5.113,-4.003c0.086,-0.126 1.131,-1.072 2.324,-2.101c2.309,-1.994 4.548,-4.212 7.229,-7.167c2.131,-2.347 2.691,-2.393 2.383,-0.196c-0.124,0.892 -0.352,2.826 -0.506,4.296c-0.154,1.47 -0.425,3.704 -0.601,4.964c-0.178,1.261 -0.4,3.065 -0.494,4.01c-0.093,0.946 -0.296,1.882 -0.45,2.083c-0.154,0.199 -0.28,0.787 -0.28,1.309c0,1.012 -0.088,1.433 -1.413,6.73c-0.472,1.89 -0.976,3.6 -1.117,3.799c-0.142,0.201 -0.258,0.645 -0.258,0.987c-0,1.263 -5.77,14.764 -7.588,17.752c-2.773,4.562 -6.082,9.327 -7.818,11.261c-2.896,3.225 -5.111,5.538 -5.451,5.691c-0.187,0.085 -0.616,0.471 -0.954,0.859c-0.338,0.389 -0.73,0.706 -0.87,0.706c-0.14,0 -0.916,0.562 -1.723,1.249c-2.139,1.822 -6.398,4.3 -10.454,6.084c-3.49,1.535 -4.334,1.833 -5.194,1.833c-0.446,0 -0.889,0.154 -0.983,0.341c-0.094,0.188 -0.765,0.448 -1.49,0.58c-0.726,0.131 -2.434,0.443 -3.798,0.692c-8.452,1.547 -22.2,0.139 -30.26,-3.099c-2.675,-1.074 -9.587,-5.107 -10.795,-6.299c-0.255,-0.253 -0.848,-0.696 -1.316,-0.985c-0.469,-0.288 -0.853,-0.668 -0.853,-0.842c0,-0.175 -0.144,-0.318 -0.322,-0.318c-1.967,-0 -12.902,-12.914 -16.979,-20.051c-3.116,-5.453 -2.892,-5.294 -4.952,-3.533c-0.797,0.683 -1.729,1.43 -2.07,1.66c-2.055,1.386 -3.387,2.398 -5.731,4.352c-1.449,1.208 -3.616,2.975 -4.818,3.926c-1.2,0.952 -2.368,2.006 -2.594,2.342c-0.226,0.336 -0.603,0.611 -0.838,0.611c-0.235,0 -0.427,0.151 -0.427,0.334c0,0.183 -0.383,0.577 -0.851,0.872c-0.656,0.414 -10.675,8.424 -11.184,8.941c-0.207,0.211 0.278,1.57 0.818,2.293c0.303,0.405 0.963,1.444 1.469,2.309c6.214,10.649 10.809,16.641 20.047,26.139c5.542,5.7 16.999,14.293 22.39,16.797c0.342,0.157 1.109,0.546 1.705,0.861c4.927,2.603 9.165,4.469 10.151,4.469c0.361,0 0.734,0.152 0.827,0.34c0.094,0.186 0.625,0.432 1.18,0.546c0.555,0.113 1.602,0.389 2.327,0.614c4.001,1.244 8.011,2.218 11.542,2.806c3.546,0.588 18.618,0.59 22.154,0.001c5.365,-0.892 8.996,-1.613 10.225,-2.029c1.338,-0.453 2.691,-0.881 4.648,-1.471c2.456,-0.742 3.445,-1.107 5.732,-2.118c1.278,-0.565 2.951,-1.284 3.718,-1.597c3.128,-1.278 10.721,-6.004 15.027,-9.354c1.194,-0.928 2.551,-1.927 3.017,-2.221c0.466,-0.294 1.093,-0.812 1.394,-1.152c0.301,-0.34 1.663,-1.642 3.026,-2.892c1.364,-1.251 2.635,-2.45 2.826,-2.663c0.19,-0.213 1.26,-1.333 2.378,-2.489c4.361,-4.508 13.066,-15.785 16.214,-21.004c2.885,-4.785 6.624,-11.598 6.624,-12.07c-0,-0.114 0.418,-0.954 0.929,-1.871c0.512,-0.915 0.93,-1.744 0.93,-1.843c-0,-0.097 0.882,-2.473 1.96,-5.278c2.015,-5.24 2.451,-6.499 3.618,-10.446c0.373,-1.26 0.789,-2.635 0.923,-3.056c0.695,-2.17 2.783,-13.124 3.13,-16.418c0.156,-1.473 0.456,-4.224 0.668,-6.114c0.577,-5.139 0.556,-114.98 -0.023,-120.112c-0.225,-1.995 -0.529,-5.088 -0.675,-6.874c-0.145,-1.785 -0.397,-3.933 -0.56,-4.774c-0.164,-0.84 -0.597,-3.074 -0.964,-4.965c-0.612,-3.142 -1.683,-7.075 -2.185,-8.02c-0.113,-0.209 -0.393,-1.154 -0.625,-2.1c-0.232,-0.945 -0.518,-1.89 -0.638,-2.101c-0.118,-0.21 -0.319,-0.812 -0.447,-1.336c-0.128,-0.525 -0.927,-2.76 -1.779,-4.965c-0.851,-2.206 -1.808,-4.753 -2.129,-5.661c-0.554,-1.572 -6.611,-13.416 -7.067,-13.817c-0.119,-0.104 -0.905,-1.393 -1.746,-2.864c-2.67,-4.669 -3.918,-6.384 -10.977,-15.104c-4.485,-5.539 -9.609,-10.708 -14.877,-15.01c-0.938,-0.765 -1.873,-1.564 -2.079,-1.775c-0.206,-0.21 -0.445,-0.382 -0.532,-0.382c-0.087,0 -1.104,-0.749 -2.26,-1.664c-1.867,-1.478 -3.906,-2.761 -9.228,-5.803c-0.852,-0.487 -2.386,-1.25 -3.408,-1.694c-1.023,-0.446 -2.101,-0.973 -2.397,-1.171c-0.296,-0.199 -0.811,-0.362 -1.143,-0.362c-0.334,0 -0.693,-0.172 -0.798,-0.382c-0.105,-0.209 -0.464,-0.381 -0.797,-0.381c-0.333,-0 -0.848,-0.156 -1.144,-0.345c-0.295,-0.189 -1.096,-0.525 -1.777,-0.744c-0.682,-0.219 -2.355,-0.766 -3.718,-1.216c-3.917,-1.293 -4.808,-1.529 -7.282,-1.926c-1.278,-0.206 -3.3,-0.553 -4.493,-0.772c-2.411,-0.442 -20.66,-0.912 -20.962,-0.54m17.089,45.307c2.13,0.444 4.501,0.968 5.267,1.161c0.767,0.195 1.813,0.444 2.324,0.555c0.511,0.11 1.209,0.34 1.55,0.512c0.341,0.172 1.247,0.535 2.014,0.807c0.767,0.272 1.534,0.598 1.704,0.727c0.17,0.129 0.867,0.466 1.549,0.751c1.341,0.558 5.758,3.17 7.724,4.568c1.718,1.222 4.642,3.533 4.825,3.816c0.085,0.13 0.643,0.697 1.24,1.258c1.121,1.056 1.581,1.541 4.924,5.206c3.216,3.525 6.054,7.148 7.233,9.238c1.797,3.181 5.225,9.64 5.981,11.265c0.488,1.05 0.97,1.995 1.07,2.1c0.366,0.385 1.947,5.13 2.842,8.534c1.44,5.469 1.81,7.446 3.123,16.672c0.719,5.048 0.29,16.351 -0.899,23.679c-0.256,1.576 -0.529,3.38 -0.608,4.01c-0.173,1.384 -0.714,3.916 -1.061,4.964c-0.139,0.421 -0.543,1.765 -0.898,2.989c-3.841,13.225 -15.853,31.38 -24.913,37.652c-0.576,0.399 -1.38,0.957 -1.787,1.239c-0.407,0.282 -0.81,0.62 -0.895,0.749c-0.296,0.452 -6.885,4.538 -7.319,4.538c-0.239,0 -0.677,0.153 -0.973,0.341c-0.687,0.435 -5.205,2.201 -6.426,2.512c-0.511,0.13 -1.487,0.414 -2.168,0.632c-5.779,1.847 -23.291,2.086 -26.648,0.363c-0.34,-0.174 -1.386,-0.525 -2.324,-0.779c-2.318,-0.628 -8.45,-3.052 -8.814,-3.484c-0.163,-0.192 -0.546,-0.35 -0.853,-0.35c-0.307,0 -0.558,-0.171 -0.558,-0.381c0,-0.21 -0.211,-0.382 -0.47,-0.382c-0.259,0 -1.061,-0.461 -1.781,-1.024c-0.722,-0.563 -2.457,-1.84 -3.856,-2.838c-4.923,-3.511 -9.582,-8.298 -14.807,-15.21c-2.081,-2.756 -5.698,-8.311 -5.981,-9.189c-0.102,-0.315 -0.298,-0.745 -0.437,-0.955c-2.027,-3.068 -5.293,-11.738 -6.725,-17.855c-0.185,-0.788 -0.475,-2.002 -0.645,-2.7c-0.171,-0.697 -0.31,-1.78 -0.31,-2.406c-0,-0.625 -0.127,-1.301 -0.281,-1.5c-0.155,-0.2 -0.359,-1.222 -0.453,-2.273c-0.096,-1.05 -0.307,-3.284 -0.472,-4.964c-0.388,-3.962 -0.389,-14.096 -0.002,-17.759c0.166,-1.575 0.374,-3.638 0.461,-4.583c0.088,-0.945 0.282,-2.062 0.432,-2.483c0.15,-0.42 0.345,-1.279 0.435,-1.909c0.474,-3.346 0.829,-4.908 1.87,-8.211c1.678,-5.325 3.591,-10.312 4.408,-11.487c0.23,-0.333 0.419,-0.727 0.419,-0.877c0,-0.291 2.338,-4.503 4.265,-7.686c2.442,-4.029 8.017,-10.944 11.136,-13.811c0.646,-0.594 1.245,-1.176 1.331,-1.292c0.085,-0.116 0.642,-0.624 1.238,-1.13c0.598,-0.504 1.155,-1.024 1.24,-1.154c0.802,-1.226 8.813,-6.505 11.62,-7.658c0.682,-0.28 1.372,-0.646 1.533,-0.813c0.162,-0.166 0.607,-0.304 0.989,-0.304c0.382,0 0.781,-0.172 0.886,-0.382c0.105,-0.209 0.524,-0.381 0.929,-0.381c0.407,-0 0.816,-0.155 0.91,-0.342c0.094,-0.188 0.695,-0.434 1.335,-0.549c0.64,-0.113 1.861,-0.392 2.713,-0.619c7.941,-2.115 15.274,-2.492 21.844,-1.118" style="fill:#6a32cc;"></path><path id="path01" serif:id="path0" d="M1553.12,228.685c-8.959,-8.352 -18.861,-17.782 -25.372,-23.694c0.682,-1.771 1.237,-3.289 1.394,-3.871c0.227,-0.837 0.601,-2.038 0.83,-2.668c0.568,-1.562 1.701,-6.847 1.701,-7.937c0,-0.487 0.126,-1.048 0.279,-1.249c0.154,-0.199 0.352,-1.135 0.44,-2.081c0.087,-0.945 0.34,-3.179 0.559,-4.965c0.509,-4.137 0.506,-17.905 -0.007,-21.959c-0.211,-1.68 -0.453,-3.743 -0.535,-4.583c-0.084,-0.841 -0.273,-1.872 -0.423,-2.292c-0.149,-0.419 -0.342,-1.279 -0.428,-1.909c-0.41,-2.996 -1.581,-7.64 -2.381,-9.448c-0.161,-0.364 -0.293,-0.879 -0.291,-1.146c0.001,-0.688 -3.341,-8.961 -4.389,-10.863c-0.485,-0.877 -0.881,-1.705 -0.881,-1.84c0,-0.346 -1.675,-3.254 -2.533,-4.395c-0.396,-0.529 -1.208,-1.745 -1.804,-2.703c-2.667,-4.288 -5.425,-7.934 -8.496,-11.234c-3.016,-3.239 -3.048,-3.271 -4.991,-4.965c-0.964,-0.839 -2.124,-1.913 -2.577,-2.386c-0.453,-0.473 -0.927,-0.859 -1.055,-0.859c-0.127,-0 -0.911,-0.602 -1.741,-1.338c-0.83,-0.735 -1.655,-1.336 -1.834,-1.336c-0.178,-0 -0.371,-0.136 -0.428,-0.302c-0.146,-0.431 -7.228,-4.663 -7.802,-4.663c-0.262,-0 -0.561,-0.172 -0.667,-0.381c-0.105,-0.211 -0.464,-0.383 -0.797,-0.383c-0.333,0 -0.847,-0.152 -1.144,-0.338c-1.031,-0.647 -2.092,-1.133 -2.861,-1.313c-0.427,-0.099 -1.891,-0.524 -3.254,-0.945c-2.783,-0.86 -6.464,-1.491 -10.379,-1.782c-1.449,-0.107 -3.471,-0.269 -4.494,-0.359c-1.022,-0.091 -2.626,-0.023 -3.563,0.149c-0.937,0.171 -2.573,0.329 -3.635,0.349c-2.391,0.047 -5.663,0.656 -8.914,1.66c-1.363,0.421 -2.933,0.849 -3.488,0.951c-0.556,0.102 -1.087,0.338 -1.181,0.524c-0.094,0.188 -0.482,0.341 -0.864,0.341c-0.383,-0 -0.828,0.142 -0.989,0.315c-0.162,0.173 -0.921,0.554 -1.688,0.848c-0.767,0.292 -2.619,1.267 -4.117,2.167c-1.497,0.899 -2.781,1.634 -2.853,1.634c-0.198,-0 -7.344,5.751 -7.765,6.25c-0.202,0.239 -1.429,1.379 -2.727,2.535c-2.502,2.226 -7.144,8.018 -10.888,13.226c-0.679,-0.438 -1.359,-0.874 -2.04,-1.308c-8.747,-5.576 -18.103,-10.345 -27.099,-15.701c0.665,-1.182 1.259,-2.172 1.428,-2.328c0.112,-0.105 0.607,-0.897 1.099,-1.76c1.237,-2.174 2.656,-4.433 3.213,-5.115c0.258,-0.315 1.156,-1.604 1.995,-2.864c2.752,-4.13 9.466,-11.871 12.676,-14.617c1.051,-0.898 2.119,-1.846 2.374,-2.106c0.256,-0.261 0.953,-0.896 1.549,-1.411c0.597,-0.514 1.258,-1.144 1.471,-1.398c0.212,-0.253 1.188,-1.02 2.168,-1.703c0.981,-0.683 2.554,-1.856 3.495,-2.606c2.528,-2.015 2.743,-2.167 5.106,-3.595c4.524,-2.733 7.493,-4.374 9.14,-5.051c0.937,-0.387 1.837,-0.84 1.998,-1.007c0.163,-0.168 0.588,-0.305 0.946,-0.305c0.358,-0 0.783,-0.142 0.945,-0.315c0.161,-0.174 0.921,-0.537 1.688,-0.809c0.767,-0.271 1.743,-0.635 2.169,-0.811c0.427,-0.175 2.518,-0.861 4.648,-1.525c3.734,-1.165 4.985,-1.42 10.963,-2.244c1.514,-0.21 2.834,-0.482 2.934,-0.605c0.295,-0.364 18.893,0.103 21.426,0.539c1.278,0.219 3.369,0.567 4.647,0.773c2.475,0.401 3.369,0.637 7.282,1.929c1.363,0.45 3.036,0.997 3.718,1.216c0.681,0.219 1.482,0.554 1.777,0.743c0.296,0.189 0.811,0.345 1.145,0.345c0.332,0 0.691,0.172 0.797,0.381c0.104,0.211 0.503,0.383 0.885,0.383c0.382,-0 0.827,0.137 0.989,0.305c0.161,0.167 1.061,0.621 1.998,1.008c2.81,1.16 13.321,7.606 13.582,8.33c0.057,0.157 0.241,0.286 0.409,0.286c0.169,0 0.913,0.516 1.657,1.146c0.743,0.63 1.423,1.146 1.513,1.146c0.179,-0 4.284,3.464 4.529,3.822c0.085,0.125 1.27,1.242 2.633,2.482c2.747,2.499 8.53,8.888 10.69,11.811c0.767,1.037 2.393,3.187 3.616,4.775c2.339,3.043 8.19,12.464 8.851,14.251c0.213,0.577 0.494,1.05 0.622,1.05c0.129,0 0.235,0.171 0.235,0.378c-0,0.208 0.602,1.54 1.336,2.96c2.47,4.771 5.562,12.735 7.006,18.049c0.543,1.996 1.108,3.972 1.255,4.392c0.386,1.094 1.124,3.92 1.546,5.919c0.2,0.945 0.493,2.247 0.652,2.892c0.159,0.646 0.289,1.514 0.289,1.929c-0,0.415 0.125,0.919 0.278,1.118c0.153,0.199 0.36,1.136 0.46,2.081c0.101,0.946 0.318,3.008 0.484,4.583c0.166,1.576 0.449,4.154 0.628,5.729c0.943,8.271 0.674,23.334 -0.619,34.564c-0.144,1.26 -0.359,3.196 -0.477,4.303c-0.119,1.108 -0.336,2.106 -0.485,2.219c-0.148,0.113 -0.269,0.57 -0.269,1.015c-0,0.446 -0.13,1.338 -0.289,1.982c-0.159,0.646 -0.452,1.947 -0.653,2.892c-0.606,2.85 -1.944,7.805 -2.214,8.192c-0.138,0.2 -0.252,0.725 -0.252,1.166c-0,0.441 -0.112,0.965 -0.248,1.164c-0.134,0.199 -0.428,1.05 -0.653,1.891c-0.223,0.84 -1.17,3.504 -2.104,5.919c-0.935,2.416 -1.86,4.822 -2.058,5.347c-0.071,0.192 -0.231,0.553 -0.447,1.017Z" style="fill:#6a32cc;"></path><path id="path02" serif:id="path0" d="M1379.43,107.493c8.996,5.355 18.352,10.124 27.099,15.7c0.681,0.434 1.361,0.871 2.04,1.309c-3.194,4.443 -5.734,8.46 -5.734,9.476c-0,0.146 -0.39,0.984 -0.865,1.862c-1.09,2.013 -4.402,10.619 -4.402,11.44c-0,0.336 -0.14,0.719 -0.311,0.849c-0.169,0.13 -0.309,0.646 -0.309,1.146c0,0.5 -0.123,1.002 -0.273,1.117c-0.15,0.114 -0.348,0.597 -0.44,1.072c-0.092,0.477 -0.403,1.983 -0.693,3.349c-1.299,6.148 -1.637,8.927 -1.961,16.092c-0.316,7.01 0.206,18.571 1.007,22.29c0.09,0.42 0.445,2.224 0.788,4.01c0.646,3.358 1.627,7.069 1.986,7.512c0.113,0.139 0.206,0.571 0.206,0.958c-0,0.388 0.127,1.004 0.283,1.369c0.156,0.365 0.989,2.468 1.851,4.673c5.101,13.054 13.09,24.582 22.85,32.97c1.385,1.192 2.61,2.165 2.723,2.165c0.113,0 0.373,0.175 0.58,0.389c1.452,1.503 6.11,4.577 6.935,4.577c0.226,-0 0.411,0.172 0.411,0.382c-0,0.209 0.251,0.381 0.557,0.381c0.307,0 0.691,0.152 0.852,0.338c0.308,0.352 5.084,2.528 6.957,3.168c1.031,0.354 1.825,0.577 5.189,1.467c6.728,1.777 17.032,2.113 23.936,0.782c1.108,-0.214 2.642,-0.497 3.409,-0.628c0.767,-0.131 1.526,-0.394 1.688,-0.583c0.161,-0.189 0.608,-0.342 0.992,-0.342c1.446,0 6.897,-2.178 10.488,-4.189c4.049,-2.269 5.131,-2.957 6.722,-4.276c0.971,-0.807 1.877,-1.467 2.014,-1.468c0.137,-0.003 1.046,-0.734 2.021,-1.624c0.974,-0.891 2.577,-2.338 3.562,-3.217c2.073,-1.848 8.926,-10.025 10.983,-13.106c3.099,-4.64 4.676,-7.36 6.537,-11.267c0.652,-1.369 2.046,-4.795 3.122,-7.59c6.511,5.911 16.413,15.342 25.372,23.693c-0.376,0.808 -0.922,1.926 -1.466,2.994c-0.855,1.68 -1.734,3.487 -1.951,4.016c-0.364,0.882 -4.148,7.385 -5.131,8.816c-0.231,0.337 -0.76,1.227 -1.175,1.981c-0.415,0.752 -1.724,2.635 -2.908,4.183c-1.185,1.548 -2.852,3.751 -3.703,4.895c-1.294,1.733 -7.921,9.405 -8.98,10.393c-4.828,4.502 -8.793,7.846 -12.705,10.713c-0.339,0.246 -1.2,0.922 -1.915,1.499c-0.715,0.579 -1.436,1.052 -1.603,1.052c-0.166,-0 -0.837,0.338 -1.493,0.752c-3.37,2.126 -7.132,4.212 -7.599,4.212c-0.29,-0 -0.613,0.171 -0.719,0.382c-0.105,0.21 -0.464,0.382 -0.797,0.382c-0.332,0 -0.847,0.162 -1.143,0.361c-1.301,0.875 -5.086,2.392 -7.742,3.105c-0.724,0.194 -1.909,0.517 -2.634,0.718c-2.811,0.78 -4.804,1.233 -6.74,1.529c-1.107,0.171 -3.198,0.5 -4.647,0.732c-7.146,1.146 -16.61,1.153 -23.858,0.019c-5.5,-0.86 -7.017,-1.125 -8.521,-1.483c-0.853,-0.203 -2.038,-0.474 -2.634,-0.601c-0.596,-0.128 -1.363,-0.38 -1.704,-0.562c-0.341,-0.18 -1.038,-0.412 -1.549,-0.515c-1.74,-0.347 -7.928,-2.834 -9.214,-3.704c-0.296,-0.199 -0.81,-0.363 -1.144,-0.363c-0.333,-0 -0.691,-0.172 -0.797,-0.381c-0.106,-0.211 -0.462,-0.383 -0.792,-0.383c-0.331,0 -0.602,-0.172 -0.602,-0.382c-0,-0.209 -0.187,-0.381 -0.416,-0.381c-0.229,-0 -1.379,-0.59 -2.556,-1.309c-1.177,-0.721 -2.698,-1.636 -3.38,-2.037c-3.071,-1.801 -12.044,-8.888 -13.906,-10.984c-0.191,-0.214 -0.944,-0.924 -1.674,-1.576c-6.48,-5.8 -19.637,-23.565 -22.438,-30.296c-0.22,-0.53 -1.112,-2.34 -1.98,-4.02c-2.045,-3.957 -6.436,-14.989 -7.297,-18.332c-0.216,-0.84 -0.504,-1.691 -0.64,-1.89c-0.136,-0.199 -0.246,-0.748 -0.246,-1.219c-0,-0.471 -0.123,-0.949 -0.273,-1.064c-0.15,-0.113 -0.346,-0.597 -0.436,-1.073c-0.089,-0.475 -0.537,-2.583 -0.993,-4.683c-2.866,-13.161 -3.943,-28.59 -2.988,-42.774c0.526,-7.813 1.196,-13.993 1.863,-17.186c0.175,-0.841 0.445,-2.216 0.599,-3.055c0.671,-3.668 2.579,-11.195 3.168,-12.503c0.165,-0.365 0.299,-0.925 0.299,-1.246c-0,-0.321 0.127,-0.882 0.284,-1.247c1.127,-2.634 3.127,-8.005 3.126,-8.397c-0.001,-0.262 0.138,-0.477 0.308,-0.477c0.17,-0 0.32,-0.301 0.332,-0.669c0.013,-0.366 0.257,-1.134 0.543,-1.704c0.285,-0.57 1.181,-2.352 1.991,-3.959c0.81,-1.608 1.472,-3.075 1.472,-3.261c0,-0.184 0.14,-0.336 0.309,-0.336c0.171,-0 0.311,-0.189 0.311,-0.42c-0,-0.244 1.248,-2.62 2.312,-4.508Z" style="fill:#6a32cc;"></path><path id="path03" serif:id="path0" d="M603.401,0.248c-0.178,0.196 -0.324,19.59 -0.324,43.096c-0,42.277 -0.009,42.744 -0.956,43.077c-0.525,0.184 -9.122,0.267 -19.102,0.181c-9.977,-0.086 -18.318,0.038 -18.531,0.276c-0.313,0.349 -0.284,50.088 0.029,50.45c0.052,0.057 8.264,0.152 18.25,0.21c9.988,0.06 18.588,0.279 19.116,0.485c0.95,0.378 0.956,0.978 1.194,107.479l0.241,107.101l45.912,-0l0.241,-215.116l38.735,-0l-0,-50.802l-38.732,-0l-0.124,-43.262l-0.12,-43.261l-22.752,-0.137c-12.514,-0.076 -22.899,0.026 -23.077,0.223m-281.682,121.036c-0.511,0.006 -5.59,5.626 -5.59,6.188c0,0.238 -1.722,2.398 -3.825,4.801c-2.103,2.404 -3.825,4.563 -3.825,4.795c0,0.235 -0.379,0.895 -0.838,1.466c-1.664,2.068 -5.38,7.637 -5.38,8.065c-0,0.238 -0.537,0.994 -1.197,1.677c-0.657,0.686 -1.193,1.679 -1.193,2.21c-0,0.53 -0.216,0.965 -0.48,0.965c-0.264,-0 -0.479,0.464 -0.479,1.029c0,0.565 -0.224,1.181 -0.496,1.368c-0.772,0.527 -2.85,4.369 -2.85,5.268c0,0.441 -0.215,0.803 -0.479,0.803c-0.264,0 -0.479,0.476 -0.479,1.057c-0,0.585 -0.215,1.061 -0.476,1.061c-0.264,-0 -0.48,0.362 -0.48,0.803c0,0.442 -0.536,1.747 -1.196,2.899c-0.657,1.153 -1.194,2.696 -1.194,3.429c0,0.734 -0.215,1.334 -0.479,1.334c-0.264,-0 -0.479,0.479 -0.479,1.067c-0,1.067 -0.112,1.394 -1.593,4.667c-0.439,0.969 -0.798,2.204 -0.798,2.747c0,0.539 -0.215,1.13 -0.479,1.311c-0.261,0.178 -0.476,1.251 -0.476,2.381c-0,1.131 -0.215,2.201 -0.479,2.382c-0.264,0.177 -0.479,1.251 -0.479,2.381c-0,1.13 -0.196,2.188 -0.434,2.35c-0.238,0.162 -0.579,1.486 -0.76,2.94c-0.181,1.454 -0.525,2.778 -0.763,2.943c-0.239,0.162 -0.434,2.048 -0.434,4.188c0,2.337 -0.209,3.972 -0.519,4.087c-0.738,0.273 -0.746,34.164 -0.009,34.977c0.29,0.324 0.528,2.102 0.528,3.956c0,1.851 0.207,3.798 0.462,4.322c0.253,0.527 0.695,2.356 0.976,4.067c0.284,1.711 0.703,4.064 0.932,5.229c0.23,1.162 0.577,3.068 0.772,4.233c0.195,1.165 0.482,2.235 0.64,2.381c0.158,0.146 0.907,2.407 1.665,5.026c1.276,4.417 7.116,18.404 8.947,21.433c0.441,0.73 1.391,2.514 2.111,3.969c0.721,1.457 1.714,3.14 2.207,3.74c0.494,0.6 0.895,1.254 0.895,1.454c0,0.334 3.243,5.592 3.817,6.185c0.14,0.143 0.884,1.194 1.65,2.331c0.766,1.137 2.754,3.629 4.419,5.534c1.667,1.908 3.027,3.645 3.027,3.864c0,0.515 3.489,4.458 4.184,4.731c0.292,0.115 2.215,1.994 4.272,4.179c2.058,2.181 4.603,4.67 5.653,5.528c1.053,0.857 2.02,1.705 2.152,1.886c0.132,0.181 1.22,1.067 2.419,1.968c1.2,0.902 2.462,2.016 2.81,2.48c0.344,0.46 1.033,0.838 1.526,0.838c0.494,0 0.898,0.238 0.898,0.527c0,0.292 0.399,0.531 0.89,0.531c0.488,-0 1.291,0.597 1.788,1.324c0.493,0.727 1.124,1.321 1.406,1.321c0.728,-0 5.687,2.765 5.879,3.276c0.086,0.235 0.571,0.429 1.076,0.429c0.505,-0 0.916,0.238 0.916,0.53c-0,0.289 0.281,0.527 0.625,0.527c0.812,0 5.785,2.721 5.992,3.277c0.086,0.235 0.774,0.429 1.526,0.429c0.752,-0 1.498,0.238 1.662,0.53c0.163,0.289 0.886,0.527 1.606,0.527c0.721,-0 1.516,0.194 1.765,0.432c0.25,0.238 2.39,1.095 4.758,1.905c2.367,0.81 4.74,1.657 5.274,1.883c0.534,0.228 3.331,0.816 6.218,1.308c2.887,0.492 6.686,1.152 8.445,1.467c3.747,0.67 21.963,0.279 26.692,-0.572c1.71,-0.308 5.047,-0.828 7.415,-1.152c2.367,-0.324 4.677,-0.81 5.133,-1.08c0.456,-0.267 1.575,-0.486 2.482,-0.486c0.91,0 1.779,-0.225 1.931,-0.498c0.152,-0.273 1.246,-0.661 2.425,-0.854c1.182,-0.197 2.264,-0.569 2.41,-0.826c0.144,-0.257 0.772,-0.467 1.401,-0.467c0.625,0 1.271,-0.238 1.434,-0.53c0.161,-0.292 0.916,-0.53 1.673,-0.53c0.758,-0 1.513,-0.238 1.673,-0.527c0.164,-0.292 0.821,-0.53 1.464,-0.53c0.642,-0 1.168,-0.223 1.168,-0.493c-0,-0.273 0.484,-0.654 1.076,-0.85c1.624,-0.537 11.83,-6.157 12.12,-6.675c0.138,-0.247 0.669,-0.45 1.18,-0.45c0.51,-0 0.926,-0.201 0.926,-0.445c0,-0.244 1.131,-1.124 2.511,-1.953c1.383,-0.828 2.809,-1.832 3.171,-2.229c0.362,-0.397 2.21,-1.883 4.106,-3.299c1.897,-1.416 4.83,-4.016 6.517,-5.778c1.684,-1.763 3.237,-3.21 3.443,-3.217c0.21,-0.006 0.844,-0.492 1.415,-1.079c1.937,-1.998 2.029,-1.375 2.161,14.735l0.126,15.438l45.82,0l0.158,-67.215c0.086,-36.968 -0.015,-69.056 -0.224,-71.307c-0.21,-2.254 -0.494,-6.001 -0.632,-8.328c-0.137,-2.331 -0.45,-4.461 -0.694,-4.738c-0.244,-0.276 -0.445,-2.006 -0.445,-3.845c0,-1.835 -0.201,-3.753 -0.447,-4.258c-0.528,-1.076 -2.901,-12.129 -2.901,-13.494c-0,-0.514 -0.198,-1.346 -0.442,-1.854c-0.982,-2.032 -2.388,-5.763 -2.689,-7.141c-0.178,-0.803 -0.514,-1.591 -0.746,-1.75c-0.235,-0.162 -0.425,-0.759 -0.425,-1.33c0,-0.572 -0.539,-1.981 -1.196,-3.134c-0.657,-1.152 -1.197,-2.442 -1.197,-2.867c0,-0.426 -0.215,-0.921 -0.476,-1.102c-0.264,-0.178 -0.479,-0.787 -0.479,-1.352c-0,-0.566 -0.216,-1.029 -0.48,-1.029c-0.261,-0 -0.476,-0.349 -0.476,-0.778c-0,-0.803 -0.981,-2.902 -3.085,-6.585c-0.671,-1.178 -1.219,-2.274 -1.219,-2.439c-0,-0.162 -0.221,-0.584 -0.491,-0.937c-0.27,-0.349 -1.119,-1.708 -1.885,-3.019c-0.769,-1.311 -2.485,-3.68 -3.814,-5.268c-1.331,-1.587 -2.419,-3.076 -2.419,-3.308c0,-0.232 -1.67,-2.337 -3.707,-4.683c-2.037,-2.347 -3.793,-4.544 -3.903,-4.881c-0.266,-0.844 -5.145,-6.204 -5.644,-6.204c-0.224,0 -2.014,-1.73 -3.977,-3.845c-1.965,-2.115 -4.181,-4.274 -4.921,-4.798c-0.74,-0.524 -1.707,-1.286 -2.152,-1.692c-1.429,-1.314 -4.982,-4.201 -5.911,-4.804c-0.5,-0.324 -1.398,-1.099 -1.997,-1.721c-0.597,-0.622 -1.452,-1.13 -1.894,-1.13c-0.445,-0 -0.807,-0.238 -0.807,-0.53c0,-0.293 -0.419,-0.531 -0.926,-0.531c-0.511,0 -1.068,-0.247 -1.237,-0.549c-0.477,-0.854 -3.949,-3.153 -4.761,-3.153c-0.401,0 -0.729,-0.238 -0.729,-0.53c0,-0.292 -0.315,-0.53 -0.7,-0.53c-0.697,-0 -4.866,-2.356 -5.73,-3.239c-0.25,-0.257 -1.059,-0.464 -1.793,-0.464c-0.738,0 -1.34,-0.238 -1.34,-0.53c-0,-0.292 -0.635,-0.53 -1.407,-0.53c-0.774,-0 -1.526,-0.21 -1.67,-0.47c-0.143,-0.257 -0.84,-0.632 -1.549,-0.829c-0.709,-0.197 -2.149,-0.816 -3.202,-1.381c-1.056,-0.562 -2.617,-1.022 -3.473,-1.022c-0.855,-0 -1.69,-0.239 -1.85,-0.531c-0.164,-0.292 -1.039,-0.53 -1.949,-0.53c-0.909,0 -2.026,-0.228 -2.482,-0.508c-1.337,-0.816 -5.369,-1.721 -8.723,-1.959c-1.71,-0.121 -3.538,-0.429 -4.063,-0.689c-1.068,-0.524 -14.365,-0.892 -23.906,-0.664m428.511,-2.543c-3.676,0.092 -6.895,0.394 -7.151,0.677c-0.255,0.282 -2.037,0.514 -3.96,0.514c-1.925,0 -3.871,0.21 -4.33,0.467c-1.343,0.756 -4.961,1.743 -7.406,2.022c-1.248,0.143 -2.27,0.473 -2.27,0.737c0,0.264 -0.969,0.479 -2.152,0.479c-1.185,0 -2.152,0.191 -2.152,0.423c0,0.235 -1.13,0.863 -2.511,1.397c-1.383,0.536 -2.717,1.178 -2.967,1.429c-0.249,0.25 -0.941,0.454 -1.538,0.454c-0.597,-0 -1.853,0.476 -2.789,1.06c-0.935,0.581 -1.965,1.058 -2.287,1.061c-0.321,-0 -2.077,0.832 -3.902,1.851c-1.828,1.016 -3.601,1.851 -3.946,1.851c-0.344,-0 -0.625,0.213 -0.625,0.476c-0,0.264 -0.649,0.727 -1.441,1.032c-0.792,0.308 -1.569,0.927 -1.724,1.375c-0.158,0.451 -0.66,0.819 -1.117,0.819c-0.456,0 -1.222,0.48 -1.698,1.064c-0.867,1.06 -3.355,2.641 -4.153,2.641c-0.232,0 -1.173,0.832 -2.094,1.852c-0.921,1.019 -1.894,1.854 -2.164,1.854c-0.267,-0 -1.173,0.711 -2.014,1.584c-0.841,0.87 -1.696,1.585 -1.9,1.588c-1.061,0.006 -19.122,20.003 -21.507,23.817c-0.82,1.308 -1.776,2.571 -2.123,2.803c-0.344,0.232 -0.628,0.711 -0.628,1.064c-0,0.352 -0.746,1.591 -1.656,2.753c-0.907,1.159 -1.928,2.705 -2.267,3.432c-1.131,2.442 -3.885,7.144 -4.29,7.322c-0.218,0.095 -0.396,0.613 -0.396,1.146c0,0.534 -0.163,1.051 -0.364,1.146c-0.479,0.232 -3.94,7.954 -3.94,8.789c-0,0.359 -0.215,0.648 -0.479,0.648c-0.264,-0 -0.479,0.432 -0.479,0.959c-0,0.53 -0.537,2.194 -1.194,3.702c-0.657,1.508 -1.197,3.086 -1.197,3.509c0,0.422 -0.215,0.911 -0.479,1.092c-0.261,0.181 -0.476,1.013 -0.476,1.851c-0,0.841 -0.215,1.673 -0.479,1.854c-0.264,0.178 -0.48,0.791 -0.48,1.359c0,0.572 -0.192,1.448 -0.427,1.956c-0.393,0.848 -1.18,4.521 -1.779,8.325c-0.138,0.873 -0.439,2.064 -0.669,2.648c-0.232,0.581 -0.525,2.128 -0.651,3.439c-0.124,1.308 -0.502,4.763 -0.838,7.674c-0.801,6.919 -0.815,28.129 -0.026,34.927c0.339,2.908 0.729,6.719 0.87,8.465c0.14,1.746 0.45,3.404 0.691,3.68c0.241,0.276 0.439,1.273 0.439,2.216c0,0.943 0.189,1.845 0.422,2.004c0.232,0.158 0.571,1.6 0.752,3.2c0.18,1.597 0.528,3.045 0.772,3.213c0.246,0.166 0.444,1.004 0.444,1.861c0,0.854 0.216,1.556 0.48,1.556c0.264,-0 0.479,0.597 0.479,1.33c-0,0.731 0.189,1.743 0.422,2.248c0.232,0.505 0.645,1.515 0.915,2.242c0.273,0.727 1.073,2.753 1.782,4.499c0.706,1.746 1.443,3.652 1.638,4.233c0.195,0.581 0.93,2.368 1.633,3.968c0.7,1.601 1.271,3.099 1.268,3.331c-0.002,0.232 0.531,1.016 1.188,1.743c0.657,0.731 1.197,1.54 1.197,1.804c-0,0.263 0.646,1.537 1.435,2.829c0.789,1.295 1.434,2.556 1.434,2.807c0,0.247 0.752,1.387 1.673,2.533c0.921,1.144 1.673,2.271 1.673,2.502c0,0.235 0.755,1.283 1.676,2.331c0.918,1.051 1.673,2.213 1.673,2.588c-0,0.374 0.967,1.67 2.152,2.876c1.182,1.207 2.152,2.302 2.152,2.433c0,0.644 8.448,10.325 9.013,10.325c0.241,0 1.811,1.546 3.484,3.436c1.675,1.889 3.262,3.442 3.523,3.445c0.264,0.003 1.272,0.838 2.241,1.854c0.97,1.016 1.909,1.848 2.087,1.848c0.281,-0 5.102,3.769 6.772,5.296c0.318,0.289 0.909,0.527 1.317,0.527c0.404,0 0.737,0.238 0.737,0.527c0,0.292 0.201,0.53 0.445,0.53c0.247,0 2.215,1.188 4.373,2.639c2.161,1.451 4.651,2.931 5.532,3.283c0.884,0.353 1.604,0.832 1.604,1.064c0,0.232 0.459,0.422 1.022,0.422c0.559,0 2.499,0.835 4.304,1.854c1.808,1.016 3.702,1.851 4.213,1.851c0.51,0 1.061,0.239 1.222,0.531c0.163,0.289 0.717,0.527 1.231,0.527c0.514,-0 1.308,0.209 1.765,0.467c1.331,0.743 4.166,1.651 5.168,1.654c0.507,0.003 1.54,0.359 2.292,0.794c0.755,0.435 2.302,0.79 3.441,0.79c1.136,0 2.181,0.197 2.315,0.442c0.135,0.241 2.462,0.73 5.168,1.085c2.709,0.356 6.107,0.877 7.556,1.156c6.884,1.334 18.987,1.124 30.847,-0.536c1.839,-0.258 4.806,-0.642 6.588,-0.851c1.782,-0.213 3.354,-0.591 3.495,-0.842c0.141,-0.247 0.878,-0.454 1.638,-0.454c0.761,0 1.88,-0.206 2.483,-0.46c0.605,-0.254 2.39,-0.873 3.968,-1.375c1.578,-0.505 3.243,-1.13 3.699,-1.394c0.459,-0.26 1.371,-0.476 2.034,-0.476c0.66,-0 1.203,-0.238 1.203,-0.527c-0,-0.292 0.525,-0.531 1.165,-0.531c0.642,0 1.302,-0.238 1.463,-0.53c0.164,-0.289 0.66,-0.53 1.105,-0.53c0.445,-0 1.868,-0.597 3.162,-1.324c1.294,-0.724 2.62,-1.321 2.95,-1.321c0.327,0 0.668,-0.178 0.754,-0.397c0.181,-0.444 7.125,-4.385 7.714,-4.372c0.206,0.003 0.783,-0.41 1.282,-0.918c0.497,-0.511 1.725,-1.393 2.729,-1.962c1.969,-1.114 6.035,-4.191 7.535,-5.702c0.511,-0.515 1.114,-0.937 1.34,-0.937c0.227,-0 1.186,-0.832 2.135,-1.851c0.947,-1.019 1.972,-1.851 2.273,-1.851c0.304,-0 1.291,-0.864 2.198,-1.918c0.907,-1.051 2.941,-3.099 4.519,-4.55c1.579,-1.451 3.917,-3.982 5.2,-5.626c1.283,-1.645 3.595,-4.481 5.142,-6.306c1.544,-1.826 2.809,-3.493 2.812,-3.706c0,-0.212 0.646,-1.146 1.435,-2.076c0.786,-0.93 1.432,-1.886 1.432,-2.121c-0,-0.238 0.944,-1.705 2.1,-3.264c1.154,-1.556 2.715,-4.134 3.466,-5.725c0.752,-1.591 1.693,-3.293 2.089,-3.778c0.712,-0.877 4.397,-8.967 5.946,-13.057c0.442,-1.165 1.22,-3.032 1.73,-4.149c0.511,-1.121 0.93,-2.477 0.93,-3.014c0,-0.536 0.215,-1.124 0.476,-1.305c0.264,-0.178 0.48,-0.911 0.48,-1.625c-0,-0.715 0.186,-1.712 0.413,-2.217c0.772,-1.711 1.618,-4.616 1.851,-6.35c0.129,-0.946 0.424,-1.854 0.657,-2.013c0.235,-0.162 0.427,-1.216 0.427,-2.346c0,-1.131 0.215,-2.201 0.477,-2.382c0.264,-0.181 0.479,-1.565 0.479,-3.076c-0,-1.515 0.221,-3.585 0.49,-4.601c0.267,-1.016 0.623,-4.058 0.79,-6.763c0.166,-2.702 0.485,-5.036 0.705,-5.188c0.224,-0.153 0.405,-2.052 0.405,-4.217l0,-3.937l-39.602,-0l-0.266,4.896c-0.491,9.043 -1.587,16.698 -2.726,19.041c-0.247,0.508 -0.448,1.283 -0.448,1.727c-0,0.445 -0.192,1.223 -0.431,1.728c-0.238,0.505 -0.694,1.991 -1.012,3.302c-0.669,2.734 -1.975,6.001 -2.503,6.261c-0.195,0.096 -0.358,0.518 -0.358,0.934c-0,0.416 -0.195,1.168 -0.436,1.676c-0.242,0.505 -0.836,1.835 -1.318,2.953c-1.492,3.464 -1.807,4.052 -2.186,4.052c-0.198,-0 -0.365,0.355 -0.365,0.793c0,0.435 -0.215,0.794 -0.476,0.794c-0.264,0 -0.479,0.457 -0.479,1.019c-0,0.562 -0.537,1.49 -1.197,2.061c-0.657,0.572 -1.193,1.229 -1.193,1.461c-0,1.498 -15.214,19.778 -16.494,19.816c-0.267,0.006 -1.561,1.076 -2.875,2.375c-1.317,1.298 -2.66,2.365 -2.99,2.368c-0.33,0.004 -0.597,0.242 -0.597,0.534c-0,0.292 -0.399,0.53 -0.884,0.53c-0.485,0 -1.274,0.476 -1.75,1.061c-0.967,1.184 -3.383,2.641 -4.376,2.641c-0.353,0 -0.643,0.238 -0.643,0.53c-0,0.293 -0.413,0.531 -0.915,0.531c-0.505,-0 -0.99,0.178 -1.077,0.397c-0.289,0.714 -5.397,3.324 -6.496,3.314c-0.594,-0.003 -1.076,0.229 -1.076,0.521c-0,0.292 -0.755,0.53 -1.676,0.53c-0.921,0 -1.673,0.223 -1.673,0.496c0,0.273 -0.97,0.657 -2.158,0.854c-1.188,0.197 -2.275,0.568 -2.419,0.829c-0.143,0.257 -1.205,0.466 -2.358,0.466c-1.151,0 -2.227,0.238 -2.391,0.531c-0.163,0.289 -1.776,0.527 -3.586,0.527c-1.811,-0 -3.424,0.238 -3.587,0.53c-0.181,0.321 -3.742,0.53 -9.088,0.53c-5.343,0 -8.907,-0.209 -9.085,-0.53c-0.163,-0.292 -1.343,-0.53 -2.622,-0.53c-1.28,-0 -3.472,-0.261 -4.876,-0.578c-6.189,-1.404 -9.03,-2.216 -9.274,-2.655c-0.143,-0.26 -0.683,-0.47 -1.196,-0.47c-0.517,0 -1.309,-0.215 -1.768,-0.479c-0.456,-0.26 -1.799,-0.784 -2.981,-1.159c-1.185,-0.375 -2.577,-0.991 -3.096,-1.375c-0.52,-0.381 -1.326,-0.692 -1.794,-0.692c-0.468,0 -0.849,-0.238 -0.849,-0.53c-0,-0.289 -0.322,-0.527 -0.712,-0.527c-0.393,-0 -2.224,-1.073 -4.072,-2.382c-1.845,-1.311 -3.472,-2.381 -3.61,-2.381c-0.14,0 -0.516,-0.235 -0.832,-0.521c-2.743,-2.476 -3.658,-3.184 -4.112,-3.184c-0.289,-0 -1.509,-1.074 -2.708,-2.382c-1.203,-1.311 -2.345,-2.381 -2.54,-2.381c-0.195,-0 -1.053,-0.797 -1.905,-1.769c-1.797,-2.048 -1.34,-2.797 3.056,-5.032c0.536,-0.273 1.262,-0.88 1.612,-1.347c0.35,-0.466 0.988,-0.847 1.421,-0.847c0.43,-0 1.188,-0.597 1.681,-1.324c0.494,-0.727 1.251,-1.324 1.682,-1.324c0.43,-0 1.096,-0.477 1.475,-1.058c0.379,-0.581 1.038,-1.057 1.466,-1.057c0.428,0 1.168,-0.479 1.644,-1.064c0.479,-0.584 1.426,-1.374 2.106,-1.756c2.012,-1.124 3.55,-2.165 4.244,-2.87c0.356,-0.365 0.924,-0.66 1.26,-0.66c0.333,-0 0.999,-0.477 1.475,-1.061c0.476,-0.581 1.122,-1.057 1.435,-1.057c0.313,-0 0.967,-0.489 1.455,-1.083c0.485,-0.597 1.595,-1.457 2.464,-1.911c0.87,-0.457 1.579,-1.042 1.579,-1.299c-0,-0.26 0.333,-0.47 0.74,-0.47c0.405,0 1.317,-0.594 2.026,-1.324c0.709,-0.727 1.526,-1.321 1.819,-1.321c0.29,0 0.918,-0.476 1.395,-1.06c0.476,-0.581 1.061,-1.058 1.3,-1.058c0.241,0 1.142,-0.596 2.005,-1.324c0.861,-0.727 1.814,-1.32 2.118,-1.32c0.304,-0 0.554,-0.239 0.554,-0.531c-0,-0.292 0.393,-0.53 0.872,-0.53c0.482,0 1.38,-0.594 1.997,-1.321c0.617,-0.727 1.375,-1.324 1.685,-1.324c0.307,0 0.947,-0.476 1.423,-1.057c0.476,-0.584 1.214,-1.061 1.636,-1.061c0.421,0 1.173,-0.593 1.667,-1.32c0.493,-0.728 1.251,-1.325 1.681,-1.325c0.431,0 1.093,-0.476 1.472,-1.057c0.379,-0.584 1.039,-1.06 1.467,-1.06c0.427,-0 1.167,-0.477 1.647,-1.061c0.476,-0.584 1.426,-1.375 2.106,-1.756c2.439,-1.365 3.635,-2.219 4.011,-2.87c0.21,-0.365 0.755,-0.664 1.208,-0.664c0.457,0 1.14,-0.476 1.518,-1.057c0.379,-0.581 1.039,-1.057 1.467,-1.057c0.427,-0 1.176,-0.489 1.661,-1.083c0.488,-0.597 1.598,-1.457 2.468,-1.915c0.866,-0.454 1.578,-1.038 1.578,-1.298c0,-0.257 0.353,-0.467 0.783,-0.467c0.428,0 1.28,-0.597 1.889,-1.324c0.611,-0.727 1.4,-1.324 1.759,-1.324c0.358,-0 1.11,-0.476 1.675,-1.057c0.566,-0.581 1.16,-1.058 1.317,-1.058c0.161,0 0.999,-0.597 1.86,-1.324c0.864,-0.727 1.816,-1.324 2.12,-1.324c0.305,0 0.554,-0.238 0.554,-0.527c0,-0.292 0.33,-0.53 0.738,-0.53c0.404,-0 1.317,-0.597 2.028,-1.324c0.709,-0.727 1.527,-1.321 1.817,-1.321c0.29,0 0.918,-0.476 1.394,-1.06c0.477,-0.582 1.134,-1.058 1.458,-1.058c0.327,0 1.102,-0.59 1.722,-1.314c0.617,-0.721 1.455,-1.318 1.856,-1.321c0.402,-0.007 1.042,-0.486 1.421,-1.07c0.378,-0.581 0.889,-1.058 1.133,-1.058c0.241,0 1.575,-0.835 2.964,-1.851c1.386,-1.019 2.809,-1.854 3.162,-1.854c0.353,0 1.048,-0.594 1.541,-1.321c0.494,-0.727 1.251,-1.324 1.682,-1.324c0.43,0 1.096,-0.476 1.475,-1.057c0.379,-0.584 1.033,-1.061 1.455,-1.061c0.424,0 1.274,-0.593 1.891,-1.32c0.619,-0.728 1.377,-1.325 1.684,-1.325c0.307,0 0.95,-0.476 1.426,-1.057c0.476,-0.584 1.131,-1.06 1.458,-1.06c0.327,-0 1.099,-0.591 1.719,-1.312c0.619,-0.724 1.503,-1.321 1.962,-1.324c0.462,-0.006 0.838,-0.219 0.838,-0.479c0,-0.257 0.7,-0.87 1.555,-1.362c2.741,-1.572 3.679,-2.21 4.577,-3.109c0.482,-0.486 1.185,-0.879 1.564,-0.879c0.376,-0 1.091,-0.597 1.584,-1.324c0.494,-0.727 1.297,-1.324 1.788,-1.324c0.488,-0 0.889,-0.21 0.889,-0.467c0,-0.26 0.709,-0.845 1.579,-1.299c0.869,-0.457 1.979,-1.317 2.464,-1.914c0.488,-0.594 1.237,-1.083 1.665,-1.083c0.427,-0 1.087,-0.476 1.466,-1.057c0.379,-0.581 0.973,-1.058 1.32,-1.058c0.347,0 1.053,-0.435 1.567,-0.965c0.513,-0.53 1.868,-1.48 3.01,-2.108c1.139,-0.632 2.465,-1.626 2.944,-2.213c0.479,-0.585 1.219,-1.064 1.647,-1.064c0.428,0 1.088,-0.476 1.466,-1.06c0.379,-0.582 1.036,-1.058 1.458,-1.058c0.422,0 1.274,-0.594 1.891,-1.324c0.617,-0.727 1.374,-1.321 1.684,-1.321c0.307,0 0.947,-0.476 1.424,-1.06c0.476,-0.581 1.061,-1.058 1.302,-1.058c0.241,0 1.142,-0.593 2.003,-1.324c0.864,-0.727 1.817,-1.32 2.121,-1.32c0.304,-0 0.554,-0.213 0.554,-0.47c-0,-0.258 0.771,-0.912 1.718,-1.455c0.947,-0.542 2.13,-1.222 2.632,-1.511c1.389,-0.797 0.275,-5.166 -2.02,-7.916c-0.23,-0.276 -0.419,-0.933 -0.419,-1.457c-0,-0.524 -0.216,-0.952 -0.477,-0.952c-0.264,-0 -0.479,-0.439 -0.479,-0.975c0,-0.537 -0.433,-1.41 -0.961,-1.937c-1.019,-1.022 -2.388,-3.731 -2.388,-4.725c0,-0.327 -0.43,-0.94 -0.955,-1.359c-0.525,-0.419 -0.956,-1.047 -0.956,-1.4c0,-0.349 -0.485,-1.311 -1.076,-2.137c-0.594,-0.822 -1.291,-1.873 -1.555,-2.33c-1.202,-2.09 -3.989,-6.097 -5.618,-8.087c-0.987,-1.201 -1.794,-2.363 -1.794,-2.575c0,-0.461 -9.727,-11.301 -10.396,-11.587c-0.252,-0.107 -1.486,-1.149 -2.743,-2.311c-1.257,-1.165 -2.959,-2.737 -3.782,-3.496c-0.821,-0.759 -2.353,-1.981 -3.406,-2.721c-1.05,-0.74 -2.342,-1.784 -2.87,-2.327c-0.525,-0.54 -1.601,-1.331 -2.39,-1.759c-0.789,-0.426 -2.307,-1.448 -3.377,-2.267c-2.244,-1.725 -4.672,-3.252 -6.546,-4.122c-0.723,-0.336 -1.317,-0.825 -1.317,-1.089c0,-0.263 -0.301,-0.476 -0.671,-0.476c-0.686,-0 -1.621,-0.461 -7.937,-3.886c-1.971,-1.071 -4.058,-1.947 -4.634,-1.944c-0.577,0.004 -1.18,-0.231 -1.343,-0.52c-0.164,-0.293 -0.781,-0.531 -1.372,-0.531c-0.591,0 -1.495,-0.349 -2.003,-0.778c-0.511,-0.425 -1.308,-0.784 -1.773,-0.793c-0.465,-0.01 -1.217,-0.235 -1.673,-0.499c-0.892,-0.521 -8.608,-2.47 -11.96,-3.023c-1.125,-0.187 -2.161,-0.546 -2.301,-0.797c-0.141,-0.254 -1.492,-0.46 -3.002,-0.46c-1.509,0 -2.95,-0.206 -3.199,-0.46c-0.534,-0.543 -14.293,-0.962 -23.88,-0.731m275.229,-1.263c-3.022,0.092 -5.702,0.4 -5.954,0.679c-0.256,0.283 -1.914,0.511 -3.685,0.511c-1.773,0 -3.351,0.226 -3.503,0.499c-0.152,0.273 -1.246,0.66 -2.425,0.854c-1.182,0.197 -2.264,0.568 -2.41,0.826c-0.144,0.257 -1.097,0.466 -2.118,0.466c-1.022,0 -1.989,0.239 -2.152,0.531c-0.161,0.292 -0.927,0.53 -1.702,0.53c-0.772,-0 -1.406,0.19 -1.406,0.422c0,0.235 -1.13,0.864 -2.511,1.397c-1.38,0.537 -2.714,1.178 -2.964,1.429c-0.249,0.251 -0.843,0.454 -1.317,0.454c-0.473,0 -0.861,0.238 -0.861,0.53c0,0.292 -0.29,0.531 -0.642,0.531c-0.669,-0 -2.388,0.933 -4.856,2.635c-0.789,0.546 -1.813,1.006 -2.272,1.029c-0.459,0.022 -0.838,0.276 -0.838,0.568c-0,0.292 -0.396,0.53 -0.881,0.53c-0.485,0 -1.274,0.477 -1.75,1.061c-0.91,1.111 -3.355,2.635 -4.256,2.654c-0.29,0.007 -1.168,0.838 -1.954,1.851c-0.789,1.013 -1.702,1.842 -2.032,1.842c-0.332,-0 -1.518,0.956 -2.637,2.121c-1.116,1.168 -2.356,2.242 -2.749,2.388c-0.995,0.368 -15.305,16.371 -15.305,17.114c-0,0.33 -0.216,0.603 -0.477,0.603c-0.264,-0 -0.479,0.356 -0.479,0.794c0,0.435 -0.212,0.793 -0.473,0.793c-0.259,0 -0.99,0.893 -1.622,1.985c-0.631,1.092 -1.604,2.511 -2.158,3.153c-0.553,0.641 -1.007,1.299 -1.007,1.454c0,0.156 -0.754,1.445 -1.676,2.864c-0.921,1.416 -1.672,2.848 -1.672,3.175c-0,0.33 -0.216,0.6 -0.48,0.6c-0.261,0 -0.476,0.34 -0.476,0.756c0,0.416 -0.27,1.07 -0.6,1.454c-0.949,1.108 -5.899,12.625 -6.556,15.254c-0.328,1.308 -0.896,3.013 -1.263,3.784c-0.367,0.772 -0.669,1.89 -0.669,2.483c0,0.594 -0.215,1.226 -0.479,1.404c-0.261,0.181 -0.476,1.032 -0.476,1.892c-0,0.861 -0.198,1.975 -0.436,2.483c-0.241,0.505 -0.652,2.229 -0.916,3.829c-0.261,1.601 -0.817,4.966 -1.236,7.478c-0.675,4.051 -0.761,13.961 -0.761,87.45l0,82.88l38.738,0l0,-81.464c0,-53.74 0.164,-81.576 0.479,-81.792c0.261,-0.181 0.477,-1.264 0.477,-2.404c-0,-2.927 2.066,-12.402 2.932,-13.446c0.23,-0.277 0.416,-0.899 0.416,-1.382c0,-2.06 6.844,-15.402 9.438,-18.393c0.333,-0.384 0.606,-0.896 0.606,-1.134c-0,-0.714 10.043,-11.662 10.697,-11.662c0.33,0 1.228,-0.724 1.994,-1.607c0.766,-0.885 1.934,-1.914 2.6,-2.286c2.41,-1.349 3.607,-2.206 3.983,-2.854c0.209,-0.365 0.8,-0.661 1.314,-0.661c0.514,0 0.933,-0.238 0.933,-0.53c-0,-0.292 0.315,-0.53 0.7,-0.53c0.384,-0 1.664,-0.594 2.841,-1.321c1.179,-0.727 2.574,-1.324 3.099,-1.324c0.525,0 1.087,-0.238 1.251,-0.53c0.163,-0.289 0.929,-0.527 1.701,-0.527c0.775,-0 1.406,-0.238 1.406,-0.531c0,-0.292 0.97,-0.53 2.152,-0.53c1.186,0 2.153,-0.19 2.153,-0.422c-0,-0.232 3.122,-0.88 6.935,-1.438l6.936,-1.013l-0,-21.318c-0,-16.762 -0.129,-21.293 -0.6,-21.204c-0.327,0.061 -3.068,0.188 -6.089,0.283m-257.392,44.861c0.608,0.251 2.384,0.457 3.945,0.457c1.573,0 2.838,0.235 2.838,0.531c0,0.289 0.849,0.527 1.885,0.527c1.036,-0 2.018,0.238 2.181,0.53c0.161,0.292 1.131,0.53 2.152,0.53c1.022,0 1.989,0.238 2.152,0.527c0.161,0.293 0.778,0.531 1.372,0.531c0.591,-0 1.492,0.349 2.003,0.778c0.511,0.425 1.4,0.784 1.977,0.793c0.577,0.01 1.179,0.254 1.343,0.546c0.163,0.289 0.821,0.528 1.463,0.528c0.643,-0 1.168,0.238 1.168,0.53c0,0.292 0.376,0.53 0.835,0.53c0.861,0.003 7.346,3.502 7.774,4.194c0.129,0.213 1.328,1.035 2.66,1.829c1.331,0.794 3.033,2.026 3.779,2.737c0.749,0.711 1.489,1.299 1.644,1.305c0.158,0.007 1.082,0.781 2.057,1.721c0.973,0.94 2.514,2.302 3.424,3.029c3.076,2.464 3.211,3.788 0.548,5.43c-2.095,1.289 -5.269,3.734 -5.427,4.175c-0.086,0.248 -0.47,0.451 -0.855,0.451c-0.384,-0 -1.17,0.486 -1.747,1.083c-0.577,0.593 -1.59,1.384 -2.253,1.752c-1.888,1.058 -3.569,2.163 -3.83,2.515c-0.132,0.178 -0.939,0.721 -1.794,1.203c-0.855,0.486 -1.555,1.115 -1.555,1.397c-0,0.286 -0.333,0.518 -0.738,0.518c-0.407,0 -1.32,0.594 -2.028,1.321c-0.709,0.73 -1.527,1.324 -1.817,1.324c-0.292,-0 -0.918,0.476 -1.394,1.057c-0.477,0.584 -1.165,1.061 -1.533,1.061c-0.364,-0 -1.202,0.593 -1.859,1.321c-0.657,0.73 -1.461,1.324 -1.785,1.324c-0.327,-0 -0.901,0.476 -1.28,1.057c-0.378,0.584 -1.061,1.06 -1.512,1.06c-0.453,0 -0.961,0.248 -1.13,0.55c-0.411,0.733 -3.897,3.153 -4.546,3.153c-0.278,-0 -1.047,0.597 -1.704,1.324c-0.657,0.727 -1.507,1.324 -1.885,1.324c-0.382,-0 -0.962,0.476 -1.292,1.057c-0.327,0.581 -0.938,1.057 -1.354,1.057c-0.416,0 -1.263,0.597 -1.882,1.324c-0.617,0.728 -1.375,1.324 -1.682,1.324c-0.31,0 -0.95,0.477 -1.426,1.058c-0.476,0.581 -1.245,1.057 -1.707,1.057c-0.465,0 -0.916,0.197 -1.002,0.438c-0.089,0.242 -1.991,1.712 -4.227,3.267c-2.235,1.556 -4.507,3.265 -5.05,3.795c-0.545,0.533 -1.254,0.968 -1.578,0.968c-0.321,0 -1.125,0.597 -1.782,1.324c-0.66,0.727 -1.478,1.321 -1.819,1.321c-0.342,0 -1.01,0.476 -1.487,1.061c-0.476,0.581 -1.213,1.057 -1.641,1.057c-0.428,-0 -1.093,0.489 -1.481,1.083c-0.387,0.597 -1.242,1.394 -1.899,1.768c-3.257,1.861 -6.078,3.731 -6.964,4.623c-0.546,0.546 -1.254,0.994 -1.579,0.994c-0.321,0 -1.124,0.594 -1.782,1.321c-0.66,0.73 -1.463,1.324 -1.787,1.324c-0.325,-0 -0.901,0.476 -1.28,1.057c-0.379,0.584 -1.033,1.061 -1.455,1.061c-0.425,-0 -1.274,0.593 -1.891,1.321c-0.62,0.73 -1.377,1.324 -1.684,1.324c-0.307,-0 -0.95,0.476 -1.426,1.057c-0.477,0.584 -1.263,1.06 -1.748,1.06c-0.485,0 -0.881,0.2 -0.881,0.445c0,0.244 -0.754,0.895 -1.676,1.445c-0.921,0.546 -1.673,1.181 -1.673,1.406c0,0.223 -0.344,0.407 -0.769,0.407c-0.421,-0 -1.385,0.536 -2.143,1.19c-3.558,3.08 -4.21,3.572 -4.717,3.572c-0.299,0 -1.082,0.597 -1.739,1.324c-0.657,0.728 -1.507,1.324 -1.888,1.324c-0.379,0 -0.962,0.477 -1.289,1.058c-0.33,0.581 -0.884,1.057 -1.234,1.057c-0.35,0 -1.994,1.073 -3.653,2.381c-1.658,1.312 -3.256,2.382 -3.552,2.382c-0.296,-0 -0.537,0.222 -0.537,0.495c0,0.27 -0.485,0.657 -1.076,0.854c-0.591,0.2 -1.454,0.731 -1.916,1.181c-0.462,0.448 -1.237,1.077 -1.725,1.394c-2.273,1.477 -5.102,3.687 -5.245,4.093c-0.089,0.248 -0.474,0.451 -0.858,0.451c-0.385,-0 -1.171,0.486 -1.748,1.083c-2.634,2.714 -5.604,3.403 -5.604,1.298c-0,-0.727 -0.215,-1.324 -0.479,-1.324c-0.264,0 -0.479,-0.832 -0.479,-1.851c-0,-1.019 -0.216,-1.851 -0.477,-1.851c-0.264,0 -0.479,-0.699 -0.479,-1.553c0,-0.857 -0.25,-2.225 -0.557,-3.045c-2.149,-5.75 -2.086,-38.73 0.078,-41.124c0.264,-0.292 0.479,-1.422 0.479,-2.508c0,-1.089 0.215,-2.128 0.479,-2.309c0.261,-0.181 0.477,-0.895 0.477,-1.587c-0,-0.692 0.215,-1.407 0.479,-1.588c0.264,-0.181 0.479,-1.013 0.479,-1.851c-0,-0.841 0.215,-1.673 0.476,-1.854c0.264,-0.178 0.48,-0.721 0.48,-1.207c-0,-0.873 4.72,-11.78 5.32,-12.288c0.169,-0.142 0.901,-1.454 1.621,-2.908c0.72,-1.457 1.681,-3.124 2.135,-3.705c0.453,-0.581 1.477,-2.131 2.278,-3.439c0.801,-1.311 2.339,-3.375 3.42,-4.591c1.079,-1.213 1.963,-2.331 1.963,-2.48c0,-0.499 6.118,-7.217 6.571,-7.217c0.244,-0 1.005,-0.696 1.69,-1.547c0.683,-0.847 2.494,-2.575 4.023,-3.835c1.53,-1.261 2.853,-2.47 2.942,-2.689c0.086,-0.22 0.473,-0.397 0.858,-0.397c0.384,-0 1.236,-0.594 1.893,-1.324c0.66,-0.728 1.418,-1.321 1.688,-1.321c0.269,-0 1.429,-0.715 2.574,-1.588c1.147,-0.873 2.37,-1.591 2.717,-1.591c0.347,0 1.69,-0.596 2.984,-1.324c1.294,-0.724 2.64,-1.32 2.99,-1.32c0.35,-0 0.634,-0.239 0.634,-0.528c0,-0.292 0.62,-0.53 1.378,-0.53c0.757,0 1.644,-0.359 1.971,-0.794c0.327,-0.438 1.093,-0.793 1.705,-0.793c0.608,-0 1.242,-0.238 1.403,-0.531c0.163,-0.289 1.13,-0.527 2.152,-0.527c1.021,0 1.991,-0.238 2.152,-0.53c0.164,-0.292 1.148,-0.53 2.187,-0.53c1.041,-0 2.266,-0.219 2.723,-0.489c0.456,-0.267 2.981,-0.749 5.612,-1.067c2.632,-0.318 5.429,-0.667 6.219,-0.772c2.249,-0.298 12.31,0.305 13.541,0.813m-431.794,9.335c5.578,0.533 12,1.813 13.53,2.696c0.456,0.263 1.357,0.479 2.003,0.479c0.645,0 1.308,0.238 1.469,0.53c0.163,0.289 0.915,0.527 1.676,0.527c0.757,0 1.509,0.239 1.673,0.531c0.163,0.292 0.697,0.53 1.185,0.53c0.961,-0 3.974,1.6 4.235,2.248c0.086,0.219 0.422,0.397 0.743,0.397c0.953,-0 5.731,2.765 6.566,3.804c0.424,0.527 1.021,0.958 1.322,0.958c0.87,0 2.523,1.163 4.709,3.309c1.111,1.089 2.187,1.984 2.39,1.988c0.204,0.003 1.814,1.521 3.576,3.375c1.765,1.851 3.541,3.508 3.945,3.683c0.408,0.171 0.741,0.514 0.741,0.765c-0,0.248 1.411,2.099 3.139,4.118c3.073,3.588 8.818,12.342 8.818,13.434c-0,0.302 0.189,0.55 0.419,0.55c0.232,-0 1.01,1.371 1.73,3.045c0.717,1.673 1.495,3.454 1.73,3.959c0.233,0.508 0.425,1.235 0.425,1.623c0,0.384 0.537,1.936 1.194,3.445c0.66,1.508 1.196,3.172 1.196,3.695c0,0.528 0.221,1.201 0.491,1.499c0.267,0.295 0.519,1.416 0.554,2.486c0.037,1.07 0.212,1.947 0.39,1.947c0.973,-0 2.979,19.073 2.692,25.579c-0.399,8.953 -1.676,17.857 -2.744,19.111c-0.235,0.276 -0.427,1.168 -0.427,1.984c-0,0.813 -0.21,1.48 -0.468,1.48c-0.258,-0 -0.602,0.657 -0.763,1.457c-0.161,0.8 -0.829,2.763 -1.484,4.366c-0.654,1.6 -1.366,3.385 -1.578,3.969c-1.271,3.442 -1.988,4.956 -2.631,5.547c-0.399,0.368 -0.726,0.867 -0.726,1.108c-0,0.41 -1.874,3.778 -2.784,5.001c-0.221,0.298 -0.812,1.251 -1.311,2.115c-0.772,1.343 -4.915,6.715 -9.776,12.687c-1.573,1.931 -5.754,5.881 -8.089,7.643c-0.944,0.711 -2.006,1.613 -2.362,2.003c-0.356,0.391 -1.541,1.207 -2.631,1.82c-1.091,0.609 -2.52,1.521 -3.177,2.022c-2.149,1.642 -5.759,3.712 -6.473,3.712c-0.385,0 -0.7,0.238 -0.7,0.527c-0,0.292 -0.594,0.537 -1.318,0.546c-0.723,0.01 -1.733,0.369 -2.243,0.794c-0.508,0.429 -1.412,0.778 -2.003,0.778c-0.591,0 -1.194,0.213 -1.34,0.473c-0.147,0.261 -1.18,0.622 -2.302,0.807c-1.119,0.184 -3.325,0.558 -4.904,0.838c-8.516,1.492 -15.133,2.14 -18.889,1.854c-2.239,-0.171 -6.112,-0.444 -8.609,-0.606c-2.499,-0.165 -4.749,-0.511 -4.999,-0.772c-0.249,-0.263 -1.38,-0.476 -2.51,-0.476c-1.131,-0 -2.058,-0.238 -2.058,-0.53c0,-0.292 -0.754,-0.531 -1.678,-0.531c-0.924,0 -2.055,-0.225 -2.511,-0.501c-0.456,-0.277 -1.693,-0.899 -2.743,-1.378c-5.206,-2.378 -11.217,-5.592 -11.536,-6.16c-0.132,-0.235 -0.634,-0.426 -1.116,-0.426c-0.482,0 -1.001,-0.358 -1.153,-0.8c-0.153,-0.438 -0.876,-1.089 -1.607,-1.441c-0.729,-0.356 -1.653,-1.038 -2.052,-1.521c-0.399,-0.483 -1.062,-0.962 -1.475,-1.07c-2.166,-0.562 -15.013,-14.717 -17.211,-18.962c-0.373,-0.718 -1.116,-1.708 -1.656,-2.204c-0.539,-0.495 -1.495,-2.051 -2.126,-3.461c-0.631,-1.406 -1.412,-2.914 -1.736,-3.352c-0.872,-1.178 -3.527,-6.894 -3.53,-7.595c0,-0.334 -0.539,-1.778 -1.196,-3.21c-0.654,-1.432 -1.194,-3.144 -1.194,-3.804c0,-0.664 -0.215,-1.35 -0.476,-1.531c-0.264,-0.181 -0.479,-1.098 -0.479,-2.041c-0,-0.943 -0.184,-1.944 -0.408,-2.22c-3.231,-3.985 -3.248,-40.607 -0.02,-44.398c0.235,-0.276 0.428,-1.289 0.428,-2.248c-0,-0.962 0.215,-1.746 0.479,-1.746c0.261,-0 0.476,-0.702 0.476,-1.556c0,-0.857 0.215,-1.705 0.479,-1.886c0.264,-0.178 0.48,-0.81 0.48,-1.403c-0,-1.118 1.4,-4.284 2.031,-4.595c0.198,-0.095 0.359,-0.467 0.359,-0.819c-0,-0.667 2.353,-6.204 2.838,-6.677c0.304,-0.299 1.337,-2.245 2.252,-4.245c0.336,-0.737 1.266,-2.033 2.066,-2.88c0.798,-0.845 1.452,-1.791 1.452,-2.102c0,-0.308 1.507,-2.331 3.349,-4.493c1.839,-2.162 3.346,-4.134 3.346,-4.382c-0,-0.251 0.333,-0.594 0.74,-0.765c0.408,-0.175 2.184,-1.832 3.946,-3.683c1.764,-1.854 3.334,-3.372 3.492,-3.375c0.158,-0.004 0.803,-0.505 1.435,-1.118c2.195,-2.127 7.136,-5.607 10.473,-7.373c0.396,-0.209 2.29,-1.241 4.21,-2.298c1.919,-1.055 3.796,-1.915 4.169,-1.915c0.373,-0 1.446,-0.476 2.382,-1.061c0.938,-0.581 2.407,-1.057 3.268,-1.057c0.858,0 1.768,-0.213 2.017,-0.473c0.772,-0.8 5.429,-1.756 11.932,-2.442c8.244,-0.87 8.198,-0.87 14.562,-0.26m-14.554,-50.39c-3.414,0.083 -6.416,0.381 -6.671,0.664c-0.253,0.279 -1.748,0.511 -3.323,0.511c-1.573,0 -3.518,0.226 -4.327,0.505c-0.807,0.276 -3.082,0.88 -5.056,1.34c-5.082,1.187 -7.742,1.896 -8.847,2.359c-1.702,0.715 -4.25,1.667 -6.695,2.502c-1.317,0.451 -4.301,1.867 -6.634,3.144c-2.333,1.276 -4.645,2.321 -5.142,2.321c-0.493,-0 -0.898,0.238 -0.898,0.53c0,0.292 -0.405,0.53 -0.898,0.53c-0.494,0 -1.136,0.318 -1.429,0.705c-0.29,0.39 -1.555,1.283 -2.806,1.981c-1.254,0.702 -2.572,1.581 -2.927,1.959c-0.356,0.375 -1.501,1.162 -2.546,1.753c-1.532,0.864 -7.044,5.182 -8.046,6.306c-0.132,0.146 -1.087,0.965 -2.123,1.822c-1.036,0.858 -3.297,3.055 -5.022,4.887c-1.724,1.832 -3.311,3.334 -3.526,3.337" style="fill:#3b56d7;"></path><path id="path04" serif:id="path0" d="M71.02,159.084c-13.35,-8.609 -26.727,-17.684 -39.585,-27.318c3.925,-4.633 15.686,-17.455 17.412,-18.877c1.05,-0.867 2.235,-1.864 2.628,-2.213c3.404,-3.016 5.252,-4.49 6.577,-5.239c0.855,-0.483 1.556,-1.089 1.556,-1.35c-0,-0.257 0.312,-0.466 0.694,-0.466c0.382,-0 1.234,-0.597 1.891,-1.324c0.657,-0.727 1.389,-1.324 1.621,-1.324c0.804,-0 3.289,-1.578 4.158,-2.642c0.482,-0.587 1.475,-1.061 2.23,-1.061c0.749,0 1.36,-0.238 1.36,-0.53c-0,-0.292 0.27,-0.524 0.6,-0.521c0.743,0.01 5.799,-2.775 6.017,-3.314c0.086,-0.219 0.559,-0.397 1.047,-0.397c0.488,-0 1.022,-0.238 1.185,-0.53c0.161,-0.293 0.927,-0.531 1.702,-0.531c0.772,0 1.406,-0.238 1.406,-0.527c-0,-0.292 0.62,-0.53 1.377,-0.53c0.755,-0 1.644,-0.359 1.972,-0.794c0.327,-0.438 1.213,-0.794 1.971,-0.794c0.757,0 1.374,-0.212 1.374,-0.473c0,-0.26 0.81,-0.609 1.794,-0.774c4.442,-0.743 5.653,-1.023 6.097,-1.41c0.264,-0.229 1.719,-0.584 3.237,-0.794c1.515,-0.206 2.873,-0.587 3.016,-0.845c0.144,-0.257 1.713,-0.466 3.487,-0.466c1.77,-0 3.431,-0.232 3.687,-0.515c0.255,-0.282 3.472,-0.578 7.148,-0.66c9.753,-0.216 21.92,0.168 22.445,0.708c0.249,0.257 1.658,0.467 3.133,0.467c1.472,-0 2.884,0.228 3.139,0.511c0.253,0.279 1.748,0.654 3.323,0.835c1.576,0.178 3.294,0.527 3.82,0.775c0.525,0.247 2.14,0.72 3.586,1.054c1.447,0.333 3.062,0.8 3.587,1.038c0.525,0.238 2.032,0.803 3.349,1.251c3.452,1.181 5.621,2.023 6.568,2.543c0.456,0.254 1.145,0.461 1.53,0.461c0.384,-0 1.71,0.594 2.947,1.321c1.236,0.73 2.539,1.324 2.895,1.324c0.757,-0 0.846,1.686 0.166,3.181c-0.261,0.578 -0.691,1.524 -0.955,2.102c-0.264,0.578 -0.479,1.394 -0.479,1.81c-0,0.416 -0.161,0.835 -0.359,0.933c-0.565,0.28 -3.004,5.9 -2.996,6.906c0.003,0.502 -0.453,1.81 -1.019,2.912c-1.922,3.747 -3.276,6.915 -3.276,7.658c-0,0.407 -0.97,2.823 -2.153,5.37c-1.185,2.543 -2.152,5.092 -2.152,5.664c0,0.568 -0.215,1.035 -0.479,1.035c-0.264,0 -0.491,0.299 -0.502,0.664c-0.014,0.362 -0.715,2.206 -1.555,4.099c-1.822,4.102 -2.614,4.407 -6.276,2.426c-1.389,-0.753 -2.866,-1.366 -3.283,-1.366c-0.419,0 -0.895,-0.238 -1.058,-0.53c-0.161,-0.292 -0.807,-0.53 -1.435,-0.53c-0.626,-0 -1.271,-0.238 -1.435,-0.527c-0.161,-0.292 -1.019,-0.531 -1.902,-0.531c-0.884,0 -2.216,-0.342 -2.959,-0.762c-1.506,-0.844 -5.394,-1.539 -13.372,-2.387c-5.03,-0.534 -6.264,-0.48 -16.918,0.714c-2.93,0.33 -7.971,1.553 -8.41,2.039c-0.196,0.219 -0.953,0.396 -1.685,0.396c-0.729,0 -1.458,0.239 -1.621,0.531c-0.164,0.289 -0.915,0.527 -1.673,0.527c-0.76,-0 -1.512,0.238 -1.676,0.53c-0.16,0.292 -0.694,0.53 -1.185,0.53c-0.961,0 -3.974,1.601 -4.235,2.248c-0.086,0.219 -0.428,0.397 -0.755,0.397c-0.872,0 -4.996,2.391 -6.321,3.664c-0.626,0.604 -1.461,1.099 -1.854,1.099c-0.393,-0 -0.715,0.238 -0.715,0.53c0,0.289 -0.246,0.527 -0.548,0.527c-0.565,0 -4.826,3.633 -5.11,4.357c-0.086,0.225 -0.431,0.406 -0.761,0.406c-0.33,-0 -3.38,3.156 -6.774,7.014c-0.088,0.099 -0.175,0.198 -0.261,0.295Z" style="fill:#3b56d7;"></path><path id="path05" serif:id="path0" d="M29.227,138.084c12.858,9.634 26.235,18.709 39.585,27.318c-5.141,5.846 -6.836,8.082 -9.26,12.177c-0.264,0.444 -0.861,1.317 -1.326,1.94c-0.735,0.987 -1.438,2.372 -4.106,8.096c-1.335,2.861 -1.504,3.318 -1.504,4.074c0,0.441 -0.189,0.803 -0.422,0.803c-0.232,0 -0.536,0.416 -0.677,0.924c-0.14,0.511 -0.66,2.118 -1.156,3.572c-0.497,1.458 -1.182,4.077 -1.527,5.824c-0.341,1.746 -0.789,3.651 -0.995,4.232c-2.265,6.433 -2.181,39.426 0.1,39.426c0.207,-0 0.373,1.07 0.373,2.381c-0,1.308 0.215,2.381 0.479,2.381c0.261,0 0.477,0.699 0.477,1.556c-0,0.854 0.215,1.702 0.479,1.883c0.264,0.181 0.479,0.892 0.479,1.581c-0,0.689 0.321,1.61 0.717,2.048c0.393,0.435 0.718,1.391 0.718,2.124c-0,0.731 0.215,1.477 0.476,1.655c0.264,0.181 0.479,0.79 0.479,1.356c0,0.565 0.215,1.025 0.479,1.025c0.262,0 0.477,0.362 0.477,0.807c-0,0.72 0.493,1.654 3.46,6.556c0.457,0.753 1.033,1.88 1.283,2.499c0.25,0.622 1.007,1.743 1.681,2.493c0.675,0.746 1.229,1.613 1.229,1.927c-0,0.775 12.964,15.31 15.044,16.866c0.916,0.689 2.267,1.82 2.996,2.515c0.732,0.695 1.564,1.264 1.854,1.264c0.287,-0 0.884,0.444 1.328,0.987c0.442,0.54 1.768,1.423 2.944,1.959c1.174,0.537 2.138,1.134 2.138,1.324c0,0.194 1.022,0.778 2.27,1.305c1.251,0.524 2.978,1.391 3.842,1.924c0.861,0.534 1.937,0.975 2.39,0.985c0.454,0.009 1.24,0.368 1.751,0.793c0.511,0.429 1.412,0.778 2.006,0.778c0.591,0 1.208,0.238 1.371,0.531c0.161,0.289 0.916,0.527 1.673,0.527c0.758,-0 1.512,0.238 1.673,0.53c0.164,0.292 0.993,0.53 1.848,0.53c0.852,0 1.753,0.219 2.003,0.486c0.249,0.267 1.854,0.603 3.564,0.746c1.707,0.14 5.472,0.54 8.359,0.886c4.117,0.495 6.338,0.489 10.284,-0.025c2.766,-0.362 6.106,-0.766 7.42,-0.896c1.314,-0.13 2.597,-0.454 2.847,-0.717c0.249,-0.264 1.377,-0.48 2.511,-0.48c1.13,0 2.054,-0.238 2.054,-0.53c0,-0.292 0.7,-0.537 1.555,-0.546c0.855,-0.01 2.632,-0.603 3.946,-1.318c1.314,-0.714 2.875,-1.305 3.466,-1.305c0.594,-0.003 1.076,-0.244 1.076,-0.536c0,-0.289 0.431,-0.528 0.959,-0.528c0.525,0 0.955,-0.238 0.955,-0.53c0,-0.292 0.327,-0.53 0.726,-0.53c0.402,-0 1.581,-0.594 2.623,-1.321c1.041,-0.727 2.172,-1.324 2.514,-1.324c0.341,0 0.932,-0.476 1.311,-1.057c0.379,-0.584 1.079,-1.061 1.555,-1.061c0.476,0 0.99,-0.355 1.142,-0.794c0.149,-0.435 0.551,-0.793 0.89,-0.793c0.338,-0 1.69,-1.07 3.007,-2.382c1.317,-1.308 2.519,-2.381 2.671,-2.381c0.959,-0 10.81,-11.945 13.562,-16.447c0.846,-1.388 1.761,-2.677 2.031,-2.861c0.27,-0.184 0.921,-1.378 1.446,-2.651c0.526,-1.277 1.168,-2.464 1.429,-2.645c0.643,-0.438 4.787,-9.98 4.787,-11.021c-0,-0.454 0.195,-0.959 0.43,-1.121c0.238,-0.162 0.689,-1.486 1.004,-2.943c0.316,-1.458 0.769,-2.782 1.005,-2.944c0.238,-0.162 0.43,-1.098 0.43,-2.083c0,-0.984 0.181,-1.911 0.399,-2.063c0.855,-0.581 2.95,-15.105 2.95,-20.436l-0,-3.695l46,-0l-0.278,7.804c-0.359,10.056 -0.74,14.561 -1.285,15.19c-0.241,0.276 -0.439,1.768 -0.439,3.315c-0,1.546 -0.201,3.223 -0.448,3.731c-0.525,1.073 -2.901,12.125 -2.901,13.484c-0,0.512 -0.212,0.927 -0.476,0.927c-0.264,0 -0.48,0.429 -0.48,0.953c0,0.524 -0.178,1.178 -0.393,1.454c-0.218,0.276 -0.683,1.575 -1.03,2.886c-0.35,1.309 -1.481,4.404 -2.514,6.878c-1.033,2.473 -2.051,4.975 -2.266,5.556c-1.269,3.423 -1.98,4.95 -2.563,5.484c-0.359,0.33 -1.053,1.67 -1.541,2.981c-0.488,1.312 -1.059,2.385 -1.268,2.385c-0.21,-0 -0.379,0.476 -0.379,1.057c0,0.584 -0.172,1.061 -0.379,1.061c-0.206,-0 -1.007,1.19 -1.773,2.644c-0.769,1.455 -1.567,2.645 -1.776,2.645c-0.207,0 -0.376,0.261 -0.376,0.578c-0,0.318 -0.755,1.553 -1.676,2.744c-0.921,1.187 -1.673,2.422 -1.673,2.743c0,0.321 -0.45,0.933 -0.998,1.362c-0.548,0.426 -2.109,2.324 -3.467,4.213c-2.958,4.122 -15.366,17.997 -16.092,17.997c-0.281,0 -1.205,0.705 -2.054,1.566c-1.989,2.019 -5.989,5.312 -6.451,5.312c-0.198,-0 -0.941,0.596 -1.65,1.324c-0.709,0.727 -1.512,1.324 -1.782,1.324c-0.272,-0 -0.918,0.4 -1.437,0.892c-1.369,1.295 -5.693,3.87 -6.506,3.87c-0.381,0 -0.691,0.213 -0.691,0.47c-0,0.261 -0.54,0.623 -1.197,0.804c-0.657,0.184 -1.196,0.568 -1.196,0.854c-0,0.282 -0.316,0.517 -0.703,0.517c-0.385,0 -1.469,0.476 -2.405,1.058c-0.935,0.584 -2.02,1.06 -2.404,1.06c-0.388,0 -0.703,0.197 -0.703,0.438c-0,0.245 -1.292,0.899 -2.87,1.458c-1.578,0.555 -2.869,1.193 -2.869,1.409c-0,0.219 -0.635,0.397 -1.406,0.397c-0.775,0 -1.541,0.238 -1.705,0.53c-0.161,0.293 -0.806,0.531 -1.435,0.531c-0.625,-0 -1.257,0.209 -1.4,0.466c-0.143,0.258 -1.228,0.629 -2.407,0.826c-1.183,0.194 -2.273,0.581 -2.425,0.854c-0.155,0.273 -1.3,0.499 -2.548,0.499c-1.246,-0 -2.471,0.216 -2.721,0.479c-0.249,0.26 -1.529,0.622 -2.846,0.803c-1.314,0.181 -3.897,0.54 -5.739,0.797c-13.369,1.877 -23.843,1.883 -36.586,0.029c-1.71,-0.251 -4.241,-0.619 -5.627,-0.819c-1.389,-0.203 -2.637,-0.575 -2.78,-0.829c-0.141,-0.254 -1.306,-0.46 -2.592,-0.46c-1.285,-0 -2.459,-0.226 -2.614,-0.499c-0.152,-0.273 -1.242,-0.66 -2.424,-0.854c-1.18,-0.197 -2.264,-0.568 -2.408,-0.826c-0.143,-0.257 -0.775,-0.466 -1.4,-0.466c-0.629,-0 -1.274,-0.238 -1.435,-0.531c-0.164,-0.292 -0.915,-0.53 -1.676,-0.53c-0.757,0 -1.509,-0.238 -1.673,-0.527c-0.163,-0.292 -0.691,-0.53 -1.173,-0.53c-0.485,-0 -1.817,-0.594 -2.962,-1.318c-1.144,-0.724 -2.565,-1.317 -3.159,-1.321c-0.591,-0.003 -1.076,-0.244 -1.076,-0.536c0,-0.292 -0.29,-0.53 -0.643,-0.53c-0.803,-0 -9.655,-4.916 -10.746,-5.967c-0.442,-0.428 -1.667,-1.216 -2.717,-1.749c-1.053,-0.537 -2.201,-1.283 -2.548,-1.661c-0.35,-0.374 -1.076,-0.946 -1.613,-1.263c-0.537,-0.318 -1.593,-1.185 -2.344,-1.928c-0.752,-0.739 -1.774,-1.609 -2.27,-1.93c-2.037,-1.318 -3.788,-2.807 -6.052,-5.16c-1.314,-1.365 -3.443,-3.394 -4.732,-4.508c-1.288,-1.115 -3.033,-2.861 -3.879,-3.881c-4.236,-5.096 -9.676,-12.005 -10.072,-12.786c-0.247,-0.482 -1.254,-1.841 -2.241,-3.019c-0.984,-1.178 -1.794,-2.379 -1.794,-2.667c0,-0.293 -0.536,-1.124 -1.193,-1.855c-0.657,-0.727 -1.197,-1.651 -1.197,-2.057c0,-0.404 -0.376,-1.115 -0.838,-1.578c-0.459,-0.464 -1.254,-1.75 -1.767,-2.861c-0.514,-1.108 -1.277,-2.493 -1.702,-3.077c-0.422,-0.581 -1.185,-2.067 -1.699,-3.299c-0.51,-1.235 -1.09,-2.248 -1.288,-2.251c-0.195,-0.003 -0.359,-0.467 -0.359,-1.032c0,-0.565 -0.215,-1.175 -0.476,-1.356c-0.264,-0.177 -0.479,-1.035 -0.479,-1.898c-0,-0.912 -0.302,-1.702 -0.718,-1.877c-0.393,-0.168 -0.717,-0.632 -0.717,-1.025c0,-0.397 -0.43,-1.572 -0.956,-2.607c-0.528,-1.035 -0.958,-2.458 -0.958,-3.16c0,-0.701 -0.215,-1.422 -0.476,-1.603c-0.264,-0.181 -0.485,-0.848 -0.494,-1.486c-0.008,-0.638 -0.333,-1.622 -0.717,-2.188c-0.388,-0.565 -0.703,-1.578 -0.703,-2.248c-0,-0.673 -0.215,-1.222 -0.479,-1.222c-0.262,-0 -0.477,-1.073 -0.477,-2.381c0,-1.312 -0.195,-2.382 -0.433,-2.382c-0.238,0 -0.554,-1.13 -0.7,-2.515c-0.554,-5.178 -1.177,-9.458 -1.676,-11.509c-0.284,-1.162 -0.522,-3.709 -0.528,-5.655c-0.006,-1.95 -0.227,-3.69 -0.491,-3.871c-0.648,-0.441 -0.648,-20.902 0,-20.902c0.279,0 0.48,-1.746 0.48,-4.178c-0,-2.296 0.301,-5.928 0.671,-8.068c0.37,-2.144 0.947,-5.63 1.277,-7.754c0.333,-2.124 0.783,-3.985 1.001,-4.134c0.218,-0.149 0.399,-1.194 0.399,-2.324c0,-1.131 0.19,-2.185 0.422,-2.344c0.233,-0.161 0.568,-1.358 0.746,-2.667c0.175,-1.305 0.505,-2.498 0.729,-2.651c0.224,-0.155 0.68,-1.47 1.019,-2.924c0.335,-1.454 0.786,-2.645 1.001,-2.645c0.212,-0 0.387,-0.508 0.387,-1.13c0,-0.626 0.99,-3.423 2.204,-6.221c1.211,-2.797 2.614,-6.039 3.116,-7.201c1.297,-3 3.174,-6.525 4.523,-8.481c0.637,-0.92 1.156,-1.94 1.156,-2.267c0,-0.327 0.448,-1.136 0.996,-1.803c0.99,-1.2 6.459,-9.303 7.374,-10.923c0.12,-0.211 0.564,-0.766 1.24,-1.564Z" style="fill:#3b56d7;"></path><path id="path06" serif:id="path0" d="M92.836,398.159c-0,2.305 1410.99,2.195 1411.4,-0.11c0.197,-1.092 -33.731,-1.147 -705.596,-1.147c-695.388,0 -705.803,0.02 -705.803,1.257" style="fill:#3b56d7;"></path><path id="path1" d="M1186.16,147.542c-0.142,0.717 -0.227,1.42 -0.187,1.561c0.039,0.142 0.013,0.617 -0.059,1.057c-0.071,0.439 -0.085,0.938 -0.032,1.107c0.054,0.17 0.08,0.505 0.057,0.745c-0.022,0.24 0.01,0.543 0.071,0.673c0.061,0.13 0.093,0.298 0.071,0.373c-0.022,0.075 -0.025,0.383 -0.008,0.685c0.033,0.553 0.077,0.828 0.368,2.26c0.087,0.428 0.178,0.907 0.203,1.064c0.084,0.533 0.688,2.031 1.08,2.677c0.214,0.354 0.549,1.026 0.745,1.494c0.196,0.468 0.441,0.884 0.545,0.923c0.104,0.04 0.279,0.253 0.389,0.474c0.111,0.221 0.431,0.541 0.712,0.71c0.281,0.169 0.563,0.426 0.628,0.572c0.064,0.145 0.353,0.441 0.642,0.657c0.289,0.215 0.732,0.577 0.983,0.803c0.357,0.321 1.311,0.737 4.34,1.894c3.034,1.158 3.898,1.535 3.95,1.724c0.047,0.167 -1.481,5.59 -5.019,17.812c-4.694,16.218 -5.081,17.61 -5.018,18.086c0.037,0.283 -0.007,0.904 -0.099,1.38c-0.092,0.476 -0.131,1.113 -0.086,1.416c0.045,0.303 0.032,0.719 -0.027,0.923c-0.06,0.205 -0.039,0.61 0.047,0.901c0.086,0.29 0.19,0.961 0.233,1.491c0.174,2.17 1.519,6.269 2.134,6.504c0.103,0.039 0.259,0.287 0.348,0.55c0.089,0.264 0.283,0.525 0.431,0.582c0.148,0.056 0.333,0.315 0.411,0.574c0.08,0.267 0.266,0.519 0.429,0.581c0.158,0.061 0.344,0.244 0.413,0.407c0.069,0.164 0.368,0.438 0.666,0.611c0.297,0.172 0.598,0.442 0.668,0.599c0.08,0.179 0.555,0.499 1.265,0.852c0.626,0.312 1.175,0.667 1.22,0.791c0.118,0.317 0.976,0.612 1.446,0.495c0.217,-0.053 0.709,0.017 1.091,0.157c0.996,0.365 1.795,0.463 2.103,0.258c0.146,-0.098 0.432,-0.115 0.634,-0.037c0.366,0.139 1.428,-0.055 2.109,-0.386c0.196,-0.096 0.435,-0.144 0.531,-0.107c0.096,0.036 0.529,-0.138 0.962,-0.388c0.433,-0.25 1.075,-0.62 1.427,-0.822c0.352,-0.201 0.764,-0.377 0.916,-0.391c0.162,-0.014 0.315,-0.155 0.37,-0.343c0.054,-0.188 0.515,-0.616 1.119,-1.038c0.564,-0.395 1.111,-0.886 1.216,-1.092c0.106,-0.206 0.286,-0.437 0.401,-0.514c0.116,-0.077 0.34,-0.349 0.498,-0.603c0.159,-0.255 0.39,-0.542 0.513,-0.639c0.124,-0.096 0.355,-0.495 0.515,-0.886c0.159,-0.392 0.406,-0.798 0.549,-0.905c0.661,-0.491 1.51,-3.117 6.599,-20.402c4.456,-15.134 4.832,-16.356 5.063,-16.46c0.192,-0.087 1.568,0.39 5.936,2.059l5.686,2.173l0.219,0.486l0.218,0.486l-1.57,5.664c-1.467,5.292 -1.564,5.702 -1.484,6.246c0.047,0.321 0.028,0.911 -0.042,1.313c-0.07,0.401 -0.078,0.835 -0.017,0.964c0.06,0.129 0.086,0.44 0.057,0.691c-0.03,0.252 -0.004,0.563 0.056,0.691c0.061,0.129 0.099,0.505 0.086,0.837c-0.047,1.17 1.798,6.722 2.296,6.912c0.125,0.048 0.3,0.302 0.389,0.566c0.093,0.277 0.29,0.528 0.467,0.595c0.178,0.068 0.375,0.319 0.468,0.596c0.089,0.264 0.266,0.519 0.392,0.567c0.127,0.049 0.287,0.222 0.356,0.386c0.069,0.163 0.368,0.44 0.665,0.615c0.297,0.174 0.639,0.501 0.76,0.726c0.449,0.834 5.418,2.493 6.752,2.254c0.253,-0.046 0.669,-0.041 0.926,0.009c0.256,0.051 0.552,0.023 0.657,-0.063c0.105,-0.085 0.255,-0.131 0.333,-0.102c0.077,0.03 0.268,-0.04 0.424,-0.156c0.156,-0.116 0.42,-0.203 0.587,-0.195c0.33,0.017 1.207,-0.281 1.702,-0.577c0.171,-0.103 0.812,-0.441 1.425,-0.751c0.655,-0.331 1.237,-0.741 1.414,-0.993c0.165,-0.237 0.348,-0.412 0.406,-0.39c0.059,0.022 0.18,-0.083 0.269,-0.234c0.089,-0.15 0.48,-0.489 0.87,-0.753c0.389,-0.263 0.744,-0.604 0.789,-0.757c0.045,-0.154 0.236,-0.413 0.425,-0.574c0.189,-0.163 0.472,-0.609 0.629,-0.992c0.158,-0.383 0.425,-0.818 0.595,-0.966c0.17,-0.148 0.434,-0.573 0.586,-0.944c0.152,-0.372 0.385,-0.814 0.518,-0.984c0.33,-0.422 1.951,-5.966 1.851,-6.333c-0.039,-0.143 -0.02,-0.767 0.042,-1.386c0.126,-1.242 0.125,-2.652 -0.001,-3.087c-0.045,-0.155 -0.054,-0.515 -0.02,-0.8c0.035,-0.285 0.016,-0.536 -0.042,-0.558c-0.058,-0.022 -0.113,-0.287 -0.124,-0.59c-0.01,-0.302 -0.157,-0.89 -0.326,-1.306c-0.169,-0.417 -0.279,-0.853 -0.245,-0.97c0.034,-0.117 0.011,-0.232 -0.051,-0.256c-0.062,-0.023 -0.134,-0.276 -0.16,-0.561c-0.026,-0.286 -0.122,-0.547 -0.212,-0.582c-0.091,-0.035 -0.18,-0.169 -0.199,-0.299c-0.018,-0.13 -0.1,-0.33 -0.182,-0.445c-0.081,-0.115 -0.31,-0.59 -0.508,-1.057c-0.198,-0.466 -0.484,-0.942 -0.637,-1.057c-0.152,-0.116 -0.363,-0.412 -0.467,-0.66c-0.259,-0.613 -0.917,-1.431 -1.256,-1.561c-0.154,-0.058 -0.312,-0.225 -0.353,-0.37c-0.04,-0.145 -0.33,-0.413 -0.644,-0.596c-0.313,-0.182 -0.667,-0.493 -0.786,-0.69c-0.188,-0.312 -0.757,-0.576 -4.312,-2.007c-2.253,-0.907 -4.123,-1.722 -4.156,-1.81c-0.033,-0.089 2.184,-7.952 4.925,-17.473c3.83,-13.3 4.974,-17.398 4.937,-17.687c-0.027,-0.207 0.035,-0.784 0.137,-1.282c0.101,-0.5 0.139,-1.127 0.083,-1.397c-0.055,-0.27 -0.036,-0.713 0.042,-0.986c0.078,-0.272 0.121,-0.666 0.096,-0.877c-0.026,-0.211 -0.102,-0.953 -0.17,-1.649c-0.067,-0.696 -0.147,-1.313 -0.177,-1.371c-0.12,-0.231 -0.436,-1.659 -0.397,-1.794c0.057,-0.194 -0.93,-2.885 -1.078,-2.942c-0.108,-0.041 -0.65,-1.03 -0.897,-1.635c-0.055,-0.136 -0.194,-0.283 -0.308,-0.327c-0.114,-0.043 -0.294,-0.25 -0.402,-0.46c-0.107,-0.21 -0.343,-0.522 -0.524,-0.694c-0.181,-0.172 -0.378,-0.442 -0.436,-0.601c-0.058,-0.158 -0.339,-0.427 -0.623,-0.599c-0.285,-0.171 -0.574,-0.44 -0.643,-0.597c-0.119,-0.268 -2.228,-1.423 -3.471,-1.9c-1.053,-0.403 -3.399,-0.846 -3.672,-0.692c-0.153,0.086 -0.539,0.104 -0.857,0.04c-0.318,-0.065 -0.662,-0.073 -0.765,-0.017c-0.455,0.247 -1.499,0.589 -1.641,0.537c-0.175,-0.063 -0.727,0.178 -1.684,0.736c-0.357,0.208 -0.686,0.364 -0.732,0.347c-0.107,-0.041 -1.064,0.576 -1.31,0.845c-0.498,0.544 -0.937,0.939 -1.49,1.338c-0.332,0.24 -0.692,0.591 -0.799,0.779c-0.108,0.188 -0.34,0.467 -0.515,0.618c-0.176,0.152 -0.354,0.393 -0.396,0.536c-0.041,0.143 -0.234,0.396 -0.427,0.562c-0.194,0.166 -0.49,0.619 -0.658,1.007c-0.168,0.388 -0.418,0.78 -0.556,0.872c-0.171,0.113 -0.395,0.576 -0.705,1.456c-0.25,0.709 -0.566,1.478 -0.702,1.707c-0.156,0.262 -2.054,6.612 -5.092,17.028c-4.745,16.268 -4.85,16.611 -5.113,16.679c-0.292,0.077 -11.454,-4.122 -11.739,-4.415c-0.381,-0.393 -0.285,-1.02 0.637,-4.192c1.236,-4.249 2.206,-8.255 2.082,-8.593c-0.054,-0.146 -0.068,-0.617 -0.031,-1.046c0.087,-1.017 0.047,-2.338 -0.094,-3.116c-0.51,-2.801 -0.488,-2.717 -1.275,-4.85c-0.794,-2.152 -0.851,-2.281 -1.045,-2.355c-0.096,-0.037 -0.267,-0.252 -0.381,-0.479c-0.113,-0.227 -0.287,-0.443 -0.385,-0.481c-0.099,-0.038 -0.299,-0.339 -0.443,-0.67c-0.145,-0.331 -0.383,-0.646 -0.528,-0.702c-0.145,-0.056 -0.32,-0.235 -0.389,-0.398c-0.069,-0.164 -0.369,-0.438 -0.666,-0.611c-0.298,-0.172 -0.594,-0.428 -0.659,-0.568c-0.379,-0.817 -5.798,-2.775 -6.593,-2.382c-0.106,0.052 -0.473,0.049 -0.816,-0.008c-0.342,-0.057 -0.735,-0.04 -0.872,0.038c-0.137,0.078 -0.393,0.144 -0.569,0.147c-0.176,0.002 -0.484,0.071 -0.686,0.152c-0.202,0.081 -0.74,0.283 -1.196,0.449c-1.217,0.443 -2.694,1.286 -3.566,2.036c-0.421,0.361 -0.875,0.742 -1.008,0.844c-0.133,0.103 -0.352,0.318 -0.486,0.478c-0.134,0.161 -0.34,0.356 -0.457,0.434c-0.118,0.079 -0.248,0.26 -0.29,0.403c-0.042,0.143 -0.272,0.44 -0.513,0.659c-0.24,0.219 -0.464,0.49 -0.496,0.603c-0.033,0.112 -0.245,0.453 -0.47,0.758c-0.227,0.305 -0.554,0.907 -0.728,1.339c-0.175,0.432 -0.415,0.861 -0.533,0.954c-0.286,0.224 -1.474,3.903 -1.818,5.631m7.914,-1.864c0.165,-0.202 0.406,-0.613 0.537,-0.914c0.131,-0.3 0.369,-0.624 0.53,-0.719c0.16,-0.095 0.318,-0.263 0.35,-0.374c0.032,-0.111 0.185,-0.287 0.339,-0.392c0.154,-0.105 0.402,-0.339 0.551,-0.522c0.149,-0.182 0.434,-0.372 0.632,-0.421c0.199,-0.049 0.488,-0.172 0.643,-0.273c0.156,-0.101 0.352,-0.157 0.438,-0.125c0.085,0.033 0.286,-0.037 0.445,-0.156c0.16,-0.119 0.531,-0.173 0.825,-0.121c0.294,0.052 0.55,0.043 0.569,-0.02c0.17,-0.584 3.378,0.64 3.778,1.442c0.113,0.227 0.295,0.447 0.404,0.488c0.108,0.042 0.278,0.257 0.376,0.478c0.098,0.221 0.268,0.436 0.376,0.477c0.369,0.141 1.186,2.529 1.038,3.034c-0.021,0.073 0.021,0.331 0.093,0.574c0.072,0.242 0.108,0.623 0.078,0.848c-0.029,0.224 -0.024,0.696 0.012,1.049c0.086,0.857 -2.52,9.989 -2.909,10.195c-0.375,0.199 -7.291,-2.612 -7.478,-3.039c-0.079,-0.18 -0.371,-0.463 -0.649,-0.631c-0.383,-0.231 -0.58,-0.492 -0.812,-1.082c-0.169,-0.427 -0.379,-0.804 -0.467,-0.838c-0.088,-0.033 -0.221,-0.312 -0.295,-0.619c-0.075,-0.307 -0.22,-0.815 -0.322,-1.13c-0.103,-0.314 -0.16,-0.661 -0.128,-0.771c0.032,-0.11 0.005,-0.41 -0.06,-0.666c-0.066,-0.256 -0.083,-0.885 -0.04,-1.397c0.044,-0.513 0.063,-0.977 0.042,-1.032c-0.091,-0.246 0.815,-2.991 1.104,-3.343m13.61,25.948c0.474,-0.046 11.711,4.257 11.946,4.575c0.175,0.236 0.08,0.578 -4.552,16.46c-4.949,16.97 -5.515,18.744 -6.159,19.298c-0.176,0.152 -0.353,0.391 -0.394,0.531c-0.068,0.235 -0.678,0.729 -2.103,1.705c-0.929,0.636 -1.314,0.794 -1.789,0.731c-0.252,-0.033 -0.571,0.006 -0.708,0.086c-1.049,0.614 -4.137,-1.038 -4.938,-2.64c-0.111,-0.223 -0.344,-0.508 -0.518,-0.635c-0.178,-0.13 -0.348,-0.437 -0.389,-0.703c-0.041,-0.26 -0.138,-0.662 -0.217,-0.894c-0.265,-0.788 -0.307,-1.008 -0.291,-1.541c0.009,-0.293 -0.024,-0.67 -0.074,-0.838c-0.049,-0.167 -0.034,-0.65 0.034,-1.071c0.069,-0.422 0.104,-0.925 0.079,-1.118c-0.035,-0.26 1.22,-4.697 4.844,-17.132l4.89,-16.78l0.339,-0.034m31.581,-35.956c0.212,-0.502 0.491,-0.996 0.621,-1.098c0.131,-0.101 0.317,-0.341 0.415,-0.533c0.19,-0.374 0.53,-0.705 1.243,-1.216c0.246,-0.176 0.465,-0.384 0.489,-0.464c0.023,-0.08 0.117,-0.116 0.209,-0.081c0.092,0.035 0.236,-0.013 0.32,-0.107c0.328,-0.369 1.175,-0.702 1.676,-0.66c0.29,0.024 0.632,-0.016 0.76,-0.087c0.691,-0.389 3.788,0.863 4.149,1.676c0.093,0.208 0.261,0.414 0.373,0.457c0.113,0.043 0.309,0.306 0.438,0.584c0.129,0.279 0.287,0.527 0.352,0.552c0.178,0.068 0.784,1.792 0.714,2.032c-0.033,0.114 0.017,0.312 0.111,0.44c0.094,0.127 0.2,0.64 0.235,1.138c0.145,2.049 -0.014,2.681 -5.112,20.332l-4.655,16.119l-0.339,0.033c-0.527,0.052 -11.916,-4.335 -12.026,-4.632c-0.106,-0.287 9.414,-33.028 10.027,-34.485m6.283,50.761l0.256,-0.319l3.595,1.381c3.223,1.238 3.61,1.416 3.738,1.72c0.079,0.187 0.217,0.368 0.307,0.402c1.089,0.417 2.893,5.008 2.499,6.358c-0.065,0.221 -0.11,0.675 -0.101,1.007c0.019,0.738 -0.737,3.448 -1.013,3.632c-0.1,0.066 -0.328,0.458 -0.507,0.87c-0.243,0.562 -0.462,0.846 -0.875,1.136c-0.303,0.212 -0.659,0.52 -0.791,0.683c-0.377,0.466 -0.911,0.838 -1.454,1.012c-0.273,0.088 -0.635,0.237 -0.804,0.332c-0.168,0.094 -0.502,0.15 -0.742,0.124c-0.239,-0.026 -0.645,0.023 -0.901,0.107c-0.711,0.236 -3.268,-0.854 -3.61,-1.539c-0.127,-0.255 -0.307,-0.492 -0.4,-0.528c-0.092,-0.035 -0.26,-0.25 -0.374,-0.476c-0.113,-0.227 -0.297,-0.448 -0.408,-0.49c-0.324,-0.124 -1.114,-2.484 -1.198,-3.58c-0.042,-0.547 -0.112,-1.121 -0.155,-1.276c-0.157,-0.553 2.463,-9.964 2.938,-10.556" style="fill:#2735d4;"></path><g transform="matrix(62.5,0,0,62.5,149.434,243.212)"></g><text x="79.915px" y="243.212px" style="font-family:'ArialMT', 'Arial', sans-serif;font-size:62.5px;fill:#4544cd;">24</text></svg>